<svg width="425" height="52" xmlns="http://www.w3.org/2000/svg">
  <g fill="none" fill-rule="evenodd">
    <path stroke="#FFF" stroke-width="2" d="M4.479 1.05h43.017l.171.006.172.013.175.025.169.029.165.038.165.045.16.054.152.063.153.067.146.076.143.083.14.086.137.099.13.101.122.109.124.111.11.124.11.12.1.131.096.137.09.14.082.143.076.147.067.152.06.153.058.16.045.161.038.169.028.169.026.174.012.172.007.172v43.017l-.007.174-.012.175-.026.169-.028.169-.038.168-.045.162-.057.16-.06.152-.068.16-.076.146-.083.143-.089.14-.095.13-.102.134-.108.124-.111.118-.124.11-.121.112-.13.102-.138.096-.14.089-.143.08-.146.079-.153.066-.152.06-.16.055-.165.05-.165.04-.169.028-.175.019-.172.012-.171.007H4.479l-.175-.007-.175-.012-.168-.02-.17-.028-.168-.038-.162-.051-.159-.054-.16-.06-.152-.067-.146-.08-.143-.08-.14-.088-.13-.096-.134-.102-.124-.111-.118-.111-.111-.118-.112-.124-.102-.134-.095-.13-.089-.14-.083-.143-.076-.147-.067-.159-.06-.152-.054-.16-.051-.162-.039-.168-.028-.169-.02-.169-.012-.175-.006-.174V4.479l.006-.172.013-.172.019-.174.028-.17.039-.168.05-.162.055-.159.06-.153.067-.152.076-.147.083-.143.089-.14.095-.137.102-.13.112-.121.111-.124.118-.111.124-.109.133-.101.13-.099.14-.086.144-.083.146-.076.153-.067.159-.063.16-.054.161-.045.169-.038.169-.029.168-.025.175-.013z"/>
    <path d="M37.319 18.432h6.801V16.92H13.752l-.117.003-.112.01-.114.01-.112.015-.111.022-.108.023-.108.028-.105.038-.105.038-.102.039-.099.05-.098.048-.096.054-.089.054-.092.067-.092.064-.083.067-.083.073-.08.073-.079.076-.07.083-.073.086-.067.089-.06.086-.06.095-.058.096-.054.098-.048.102-.047.105-.039.108-.035.105-.035.109L7.95 30.762l-.023.086-.022.09-.013.085-.015.09-.01.088-.006.086-.003.092-.004.086v7.667l.004.067.003.06.006.06.013.058.012.06.013.055.022.057.023.057.025.054.029.051.022.048.038.05.032.048.035.048.035.041.045.042.038.041.048.035.044.038.045.032.05.035.051.026.051.031.054.023.054.022.058.019.057.016.06.013.054.01.064.006.064.006h14.175l.06-.006.064-.007.06-.01.055-.012.06-.016.054-.019.058-.022.054-.023.05-.031.052-.026.047-.035.051-.032.045-.038.044-.035.042-.041.038-.042.038-.04.038-.049.032-.047.032-.051.028-.048.029-.05.022-.055.023-.057.019-.057.016-.055.012-.06.013-.057.006-.06.003-.061.007-.067v-.022l-.007-.029v-.098l.01-.36.029-.35.041-.35.06-.343.083-.334.092-.331.109-.322.127-.314.14-.306.15-.305.171-.29.175-.28.197-.276.207-.261.216-.252.23-.241.244-.233.252-.216.26-.204.274-.197.283-.178.29-.169.302-.152.305-.14.319-.124.32-.112.329-.092.337-.08.343-.06.347-.041.35-.032.36-.006.359.006.35.032.35.041.343.06.338.08.327.092.322.112.318.124.305.14.302.152.293.169.283.178.27.197.261.204.255.216.238.233.233.241.22.252.203.26.197.277.178.28.169.29.152.305.137.306.124.314.112.322.095.33.076.335.06.343.049.35.025.35.01.36V39.199l.003.06.006.06.013.058.016.06.013.055.019.057.022.057.022.054.026.051.031.048.029.05.038.048.035.048.038.041.039.042.044.041.041.035.048.038.048.032.05.035.048.026.051.031.054.023.058.022.057.019.054.016.06.013.061.01.057.006.06.006h4.75V29.009h-6.836l-.038-.006h-.039l-.038-.01-.038-.006-.032-.013-.038-.01-.035-.015-.064-.029-.063-.038-.06-.048-.051-.047-.048-.051-.048-.06-.038-.064-.029-.064-.016-.035-.01-.032-.012-.038-.006-.038-.01-.035-.003-.041-.003-.039V19.151l.003-.038.003-.039.01-.038.019-.07.025-.073.029-.063.038-.064.048-.06.048-.051.05-.048.06-.048.064-.035.064-.032.073-.025.07-.02.077-.012.073-.003zM15.03 31.274l-.003.083-.013.07-.016.077-.028.066-.029.064-.038.067-.045.054-.044.054-.06.048-.055.044-.066.038-.064.032-.067.029-.076.016-.038.006-.039.006-.035.004H10.116l-.038-.004-.035-.006-.038-.006-.038-.007-.035-.01-.032-.015-.038-.013-.067-.032-.06-.038-.058-.044-.054-.048-.05-.054-.042-.054-.042-.067-.028-.064-.016-.035-.013-.031-.006-.039-.013-.038-.003-.032-.006-.038v-.044l-.004-.039.004-.047.003-.048.006-.05.013-.049 3.197-11.904.013-.05.016-.048.019-.045.019-.044.022-.048.022-.045.026-.041.028-.041.026-.042.028-.038.039-.038.028-.035.032-.038.038-.029.035-.035.042-.029.08-.057.082-.05.044-.023.045-.016.044-.022.045-.016.05-.016.045-.013.048-.01.051-.012.048-.003.047-.006.055-.007H13.889l.057.01.06.006.061.013.058.01.057.015.057.023.057.019.051.025.054.029.048.025.05.035.045.035.048.032.042.038.044.041.038.042.038.044.039.048.031.045.035.047.026.054.025.051.029.054.022.054.016.058.016.057.016.06.006.055.01.06.006.067v11.843zm3.929-.299v.06l-.006.064-.01.06-.006.061-.016.054-.016.06-.016.055-.022.057-.029.054-.025.051-.026.051-.035.048-.032.05-.038.045-.038.042-.038.041-.045.041-.038.039-.05.038-.045.028-.051.035-.048.026-.054.032-.05.022-.058.022-.057.02-.055.015-.06.013-.06.01-.06.006-.058.01h-.127l-.064-.01-.06-.007-.058-.01-.057-.012-.06-.016-.054-.019-.055-.022-.057-.022-.048-.032-.054-.026-.047-.035-.045-.028-.048-.038-.044-.039-.041-.041-.042-.041-.038-.042-.032-.044-.038-.051-.032-.048-.028-.05-.026-.052-.025-.054-.023-.057-.019-.054-.016-.06-.01-.055-.012-.06-.006-.06-.01-.064V19.43l.01-.067.006-.06.013-.055.01-.06.015-.057.02-.058.022-.054.025-.054.026-.05.028-.055.032-.047.038-.045.032-.048.038-.044.042-.042.04-.04.045-.04.048-.03.045-.036.047-.035.054-.025.048-.029.057-.025.055-.02.054-.022.06-.016.057-.01.058-.012.06-.006.064-.01h.127l.057.01.06.006.061.013.06.01.055.015.057.023.057.019.051.025.054.029.048.025.05.035.045.035.051.032.038.038.045.041.038.042.038.044.038.048.032.045.035.047.026.054.025.051.029.054.022.054.016.058.016.057.016.06.006.055.01.06.006.067v11.544zm3.929 0v.06l-.007.064-.01.06-.006.061-.015.054-.016.06-.016.055-.022.057-.03.054-.025.051-.025.051-.035.048-.032.05-.038.045-.038.042-.038.041-.045.041-.038.039-.051.038-.044.028-.051.035-.048.026-.054.032-.051.022-.057.022-.058.02-.054.015-.06.013-.06.01-.061.006-.057.01h-.127l-.064-.01-.06-.007-.058-.01-.06-.012-.058-.016-.054-.019-.054-.022-.057-.022-.048-.032-.054-.026-.048-.035-.044-.028-.048-.038-.044-.039-.042-.041-.041-.041-.038-.042-.032-.044-.038-.051-.032-.048-.029-.05-.025-.052-.026-.054-.022-.057-.019-.054-.016-.06-.013-.055-.01-.06-.005-.06-.01-.064V19.43l.01-.067.006-.06.01-.055.012-.06.016-.057.02-.058.021-.054.026-.054.025-.05.029-.055.032-.047.038-.045.032-.048.038-.044.041-.042.042-.04.044-.04.048-.03.044-.036.048-.035.054-.025.048-.029.057-.025.054-.02.054-.022.058-.016.06-.01.057-.012.06-.006.064-.01h.128l.057.01.06.006.06.013.061.01.054.015.058.023.057.019.05.025.055.029.048.025.05.035.045.035.05.032.04.038.044.041.038.042.038.044.038.048.032.045.035.047.025.054.026.051.029.054.022.054.016.058.016.057.015.06.007.055.01.06.006.067v11.544zm12.165-2.723l-.003.077-.013.076-.02.076-.025.067-.028.064-.038.063-.045.06-.05.052-.055.047-.057.048-.06.038-.068.029-.07.025-.073.02-.038.01h-.038l-.035.005H25.119l-.038-.006h-.039l-.038-.01-.038-.006-.032-.013-.038-.01-.035-.015-.064-.029-.063-.038-.057-.048-.054-.047-.048-.051-.045-.06-.038-.064-.032-.064-.012-.035-.013-.032-.013-.038-.006-.038-.007-.035-.006-.041-.003-.039V19.151l.003-.038.006-.039.007-.038.019-.07.025-.073.032-.063.038-.064.045-.06.048-.051.054-.048.057-.048.063-.035.064-.032.073-.025.07-.02.077-.012.076-.003H34.3l.073.003.076.013.073.019.07.025.067.032.06.035.058.048.054.048.051.05.045.06.038.065.028.063.026.073.019.07.013.077.003.076v9.063z" fill="#FFF"/>
    <path d="M37.319 18.432h6.801V16.92H13.752l-.117.003-.112.01-.114.01-.112.015-.111.022-.108.023-.108.028-.105.038-.105.038-.102.039-.099.05-.098.048-.096.054-.089.054-.092.067-.092.064-.083.067-.083.073-.08.073-.079.076-.07.083-.073.086-.067.089-.06.086-.06.095-.058.096-.054.098-.048.102-.047.105-.039.108-.035.105-.035.109L7.95 30.762l-.023.086-.022.09-.013.085-.015.09-.01.088-.006.086-.003.092-.004.086v7.667l.004.067.003.06.006.06.013.058.012.06.013.055.022.057.023.057.025.054.029.051.022.048.038.05.032.048.035.048.035.041.045.042.038.041.048.035.044.038.045.032.05.035.051.026.051.031.054.023.054.022.058.019.057.016.06.013.054.01.064.006.064.006h14.175l.06-.006.064-.007.06-.01.055-.012.06-.016.054-.019.058-.022.054-.023.05-.031.052-.026.047-.035.051-.032.045-.038.044-.035.042-.041.038-.042.038-.04.038-.049.032-.047.032-.051.028-.048.029-.05.022-.055.023-.057.019-.057.016-.055.012-.06.013-.057.006-.06.003-.061.007-.067v-.022l-.007-.029v-.098l.01-.36.029-.35.041-.35.06-.343.083-.334.092-.331.109-.322.127-.314.14-.306.15-.305.171-.29.175-.28.197-.276.207-.261.216-.252.23-.241.244-.233.252-.216.26-.204.274-.197.283-.178.29-.169.302-.152.305-.14.319-.124.32-.112.329-.092.337-.08.343-.06.347-.041.35-.032.36-.006.359.006.35.032.35.041.343.06.338.08.327.092.322.112.318.124.305.14.302.152.293.169.283.178.27.197.261.204.255.216.238.233.233.241.22.252.203.26.197.277.178.28.169.29.152.305.137.306.124.314.112.322.095.33.076.335.06.343.049.35.025.35.01.36V39.199l.003.06.006.06.013.058.016.06.013.055.019.057.022.057.022.054.026.051.031.048.029.05.038.048.035.048.038.041.039.042.044.041.041.035.048.038.048.032.05.035.048.026.051.031.054.023.058.022.057.019.054.016.06.013.061.01.057.006.06.006h4.75V29.009h-6.836l-.038-.006h-.039l-.038-.01-.038-.006-.032-.013-.038-.01-.035-.015-.064-.029-.063-.038-.06-.048-.051-.047-.048-.051-.048-.06-.038-.064-.029-.064-.016-.035-.01-.032-.012-.038-.006-.038-.01-.035-.003-.041-.003-.039V19.151l.003-.038.003-.039.01-.038.019-.07.025-.073.029-.063.038-.064.048-.06.048-.051.05-.048.06-.048.064-.035.064-.032.073-.025.07-.02.077-.012z"/>
    <path d="M15.031 31.274l-.003.083-.013.07-.016.077-.028.066-.029.064-.038.067-.045.054-.044.054-.06.048-.055.044-.066.038-.064.032-.067.029-.076.016-.038.006-.039.006-.035.004H10.116l-.038-.004-.035-.006-.038-.006-.038-.007-.035-.01-.032-.015-.038-.013-.067-.032-.06-.038-.058-.044-.054-.048-.05-.054-.042-.054-.042-.067-.028-.064-.016-.035-.013-.031-.006-.039-.013-.038-.003-.032-.006-.038v-.044l-.004-.039.004-.047.003-.048.006-.05.013-.049 3.197-11.904.013-.05.016-.048.019-.045.019-.044.022-.048.022-.045.026-.041.028-.041.026-.042.028-.038.039-.038.028-.035.032-.038.038-.029.035-.035.042-.029.08-.057.082-.05.044-.023.045-.016.044-.022.045-.016.05-.016.045-.013.048-.01.051-.012.048-.003.047-.006.055-.007H13.889l.057.01.06.006.061.013.058.01.057.015.057.023.057.019.051.025.054.029.048.025.05.035.045.035.048.032.042.038.044.041.038.042.038.044.039.048.031.045.035.047.026.054.025.051.029.054.022.054.016.058.016.057.016.06.006.055.01.06.006.067v.057zM18.96 30.975v.06l-.006.064-.01.06-.006.061-.016.054-.016.06-.016.055-.022.057-.029.054-.025.051-.026.051-.035.048-.032.05-.038.045-.038.042-.038.041-.045.041-.038.039-.05.038-.045.028-.051.035-.048.026-.054.032-.05.022-.058.022-.057.02-.055.015-.06.013-.06.01-.06.006-.058.01h-.127l-.064-.01-.06-.007-.058-.01-.057-.012-.06-.016-.054-.019-.055-.022-.057-.022-.048-.032-.054-.026-.047-.035-.045-.028-.048-.038-.044-.039-.041-.041-.042-.041-.038-.042-.032-.044-.038-.051-.032-.048-.028-.05-.026-.052-.025-.054-.023-.057-.019-.054-.016-.06-.01-.055-.012-.06-.006-.06-.01-.064V19.43l.01-.067.006-.06.013-.055.01-.06.015-.057.02-.058.022-.054.025-.054.026-.05.028-.055.032-.047.038-.045.032-.048.038-.044.042-.042.04-.04.045-.04.048-.03.045-.036.047-.035.054-.025.048-.029.057-.025.055-.02.054-.022.06-.016.057-.01.058-.012.06-.006.064-.01h.127l.057.01.06.006.061.013.06.01.055.015.057.023.057.019.051.025.054.029.048.025.05.035.045.035.051.032.038.038.045.041.038.042.038.044.038.048.032.045.035.047.026.054.025.051.029.054.022.054.016.058.016.057.016.06.006.055.01.06.006.067v.057zM22.889 30.975v.06l-.007.064-.01.06-.006.061-.015.054-.016.06-.016.055-.022.057-.03.054-.025.051-.025.051-.035.048-.032.05-.038.045-.038.042-.038.041-.045.041-.038.039-.051.038-.044.028-.051.035-.048.026-.054.032-.051.022-.057.022-.058.02-.054.015-.06.013-.06.01-.061.006-.057.01h-.127l-.064-.01-.06-.007-.058-.01-.06-.012-.058-.016-.054-.019-.054-.022-.057-.022-.048-.032-.054-.026-.048-.035-.044-.028-.048-.038-.044-.039-.042-.041-.041-.041-.038-.042-.032-.044-.038-.051-.032-.048-.029-.05-.025-.052-.026-.054-.022-.057-.019-.054-.016-.06-.013-.055-.01-.06-.005-.06-.01-.064V19.43l.01-.067.006-.06.01-.055.012-.06.016-.057.02-.058.021-.054.026-.054.025-.05.029-.055.032-.047.038-.045.032-.048.038-.044.041-.042.042-.04.044-.04.048-.03.044-.036.048-.035.054-.025.048-.029.057-.025.054-.02.054-.022.058-.016.06-.01.057-.012.06-.006.064-.01h.128l.057.01.06.006.06.013.061.01.054.015.058.023.057.019.05.025.055.029.048.025.05.035.045.035.05.032.04.038.044.041.038.042.038.044.038.048.032.045.035.047.025.054.026.051.029.054.022.054.016.058.016.057.015.06.007.055.01.06.006.067v.057zM35.054 28.252l-.003.077-.013.076-.02.076-.025.067-.028.064-.038.063-.045.06-.05.052-.055.047-.057.048-.06.038-.068.029-.07.025-.073.02-.038.01h-.038l-.035.005H25.119l-.038-.006h-.039l-.038-.01-.038-.006-.032-.013-.038-.01-.035-.015-.064-.029-.063-.038-.057-.048-.054-.047-.048-.051-.045-.06-.038-.064-.032-.064-.012-.035-.013-.032-.013-.038-.006-.038-.007-.035-.006-.041-.003-.039V19.151l.003-.038.006-.039.007-.038.019-.07.025-.073.032-.063.038-.064.045-.06.048-.051.054-.048.057-.048.063-.035.064-.032.073-.025.07-.02.077-.012.076-.003H34.3l.073.003.076.013.073.019.07.025.067.032.06.035.058.048.054.048.051.05.045.06.038.065.028.063.026.073.019.07.013.077.003.076z"/>
    <path d="M31.319 33.74l-.267.006-.27.02-.265.034-.26.045-.258.06-.248.073-.245.083-.242.092-.235.109-.226.114-.223.13-.213.137-.207.147-.2.159-.194.165-.185.172-.175.188-.165.187-.156.2-.15.208-.133.216-.13.223-.118.225-.105.236-.096.242-.083.245-.073.25-.054.255-.05.261-.033.267-.022.268-.006.27.006.274.022.267.032.264.051.26.054.255.073.252.083.245.096.238.105.239.117.226.13.222.134.213.15.207.156.2.165.195.175.184.185.172.194.169.2.159.207.146.213.137.223.127.226.118.235.105.242.095.245.083.248.073.257.054.261.048.264.038.27.016.268.006.274-.006.27-.016.264-.038.26-.048.255-.054.252-.073.245-.083.241-.095.233-.105.229-.118.222-.127.214-.137.21-.146.2-.16.188-.168.184-.172.175-.184.166-.194.159-.2.146-.208.137-.213.13-.222.115-.226.108-.239.092-.238.083-.245.073-.252.06-.254.045-.261.035-.264.019-.267.006-.274-.006-.27-.02-.268-.034-.267-.045-.26-.06-.255-.073-.251-.083-.245-.092-.242-.108-.236-.115-.225-.13-.223-.137-.216-.146-.207-.16-.2-.165-.188-.175-.188-.184-.172-.188-.165-.2-.16-.21-.146-.214-.136-.222-.13-.23-.115-.232-.109-.241-.092-.245-.083-.252-.073-.254-.06-.261-.045-.264-.035-.27-.019-.274-.006zm0 8.198l-.153-.006-.152-.01-.153-.02-.146-.028-.15-.032-.143-.04-.14-.049-.134-.054-.136-.06-.13-.07-.128-.07-.121-.08-.118-.082-.114-.093-.112-.095-.101-.099-.102-.105-.096-.108-.089-.117-.082-.118-.083-.124-.07-.124-.067-.128-.064-.136-.05-.137-.048-.14-.045-.143-.032-.147-.028-.152-.016-.15-.013-.153-.003-.152.003-.156.013-.156.016-.153.028-.146.032-.146.045-.144.048-.14.05-.14.064-.133.067-.127.07-.128.083-.12.082-.121.09-.115.095-.108.102-.105.101-.099.112-.098.114-.086.118-.09.12-.072.128-.077.13-.067.137-.06.134-.054.14-.048.143-.038.15-.038.146-.022.153-.023.152-.01.153-.006.16.007.152.01.152.022.147.022.146.038.143.038.14.048.137.054.137.06.127.067.127.077.121.073.124.089.112.086.108.098.108.099.099.105.092.108.092.115.083.12.08.121.076.128.063.127.06.134.058.14.045.14.04.143.036.146.025.146.02.153.009.156.006.156-.006.152-.01.153-.019.15-.025.152-.035.147-.041.143-.045.14-.057.137-.06.136-.064.128-.077.124-.08.124-.082.118-.092.117-.092.108-.099.105-.108.099-.108.095-.112.093-.124.082-.12.08-.128.07-.127.07-.137.06-.137.054-.14.048-.143.041-.146.032-.147.029-.152.019-.153.01-.159.006z" fill="#FFF"/>
    <path d="M31.319 33.74l-.267.006-.27.02-.265.034-.26.045-.258.06-.248.073-.245.083-.242.092-.235.109-.226.114-.223.13-.213.137-.207.147-.2.159-.194.165-.185.172-.175.188-.165.187-.156.2-.15.208-.133.216-.13.223-.118.225-.105.236-.096.242-.083.245-.073.25-.054.255-.05.261-.033.267-.022.268-.006.27.006.274.022.267.032.264.051.26.054.255.073.252.083.245.096.238.105.239.117.226.13.222.134.213.15.207.156.2.165.195.175.184.185.172.194.169.2.159.207.146.213.137.223.127.226.118.235.105.242.095.245.083.248.073.257.054.261.048.264.038.27.016.268.006.274-.006.27-.016.264-.038.26-.048.255-.054.252-.073.245-.083.241-.095.233-.105.229-.118.222-.127.214-.137.21-.146.2-.16.188-.168.184-.172.175-.184.166-.194.159-.2.146-.208.137-.213.13-.222.115-.226.108-.239.092-.238.083-.245.073-.252.06-.254.045-.261.035-.264.019-.267.006-.274-.006-.27-.02-.268-.034-.267-.045-.26-.06-.255-.073-.251-.083-.245-.092-.242-.108-.236-.115-.225-.13-.223-.137-.216-.146-.207-.16-.2-.165-.188-.175-.188-.184-.172-.188-.165-.2-.16-.21-.146-.214-.136-.222-.13-.23-.115-.232-.109-.241-.092-.245-.083-.252-.073-.254-.06-.261-.045-.264-.035-.27-.019z"/>
    <path d="M31.319 41.938l-.153-.006-.152-.01-.153-.02-.146-.028-.15-.032-.143-.04-.14-.049-.134-.054-.136-.06-.13-.07-.128-.07-.121-.08-.118-.082-.114-.093-.112-.095-.101-.099-.102-.105-.096-.108-.089-.117-.082-.118-.083-.124-.07-.124-.067-.128-.064-.136-.05-.137-.048-.14-.045-.143-.032-.147-.028-.152-.016-.15-.013-.153-.003-.152.003-.156.013-.156.016-.153.028-.146.032-.146.045-.144.048-.14.05-.14.064-.133.067-.127.07-.128.083-.12.082-.121.09-.115.095-.108.102-.105.101-.099.112-.098.114-.086.118-.09.12-.072.128-.077.13-.067.137-.06.134-.054.14-.048.143-.038.15-.038.146-.022.153-.023.152-.01.153-.006.16.007.152.01.152.022.147.022.146.038.143.038.14.048.137.054.137.06.127.067.127.077.121.073.124.089.112.086.108.098.108.099.099.105.092.108.092.115.083.12.08.121.076.128.063.127.06.134.058.14.045.14.04.143.036.146.025.146.02.153.009.156.006.156-.006.152-.01.153-.019.15-.025.152-.035.147-.041.143-.045.14-.057.137-.06.136-.064.128-.077.124-.08.124-.082.118-.092.117-.092.108-.099.105-.108.099-.108.095-.112.093-.124.082-.12.08-.128.07-.127.07-.137.06-.137.054-.14.048-.143.041-.146.032-.147.029-.152.019-.153.01z"/>
    <path stroke="#FFF" stroke-width="2" d="M190.479 1.05h43.017l.171.006.172.013.175.025.169.029.165.038.165.045.16.057.152.06.153.067.146.076.143.083.14.086.137.099.13.101.122.109.124.111.11.124.11.12.1.131.096.137.09.14.082.143.076.147.067.152.06.153.058.16.045.161.038.169.028.169.026.174.012.172.007.172v43.017l-.007.174-.012.175-.026.175-.028.163-.038.168-.045.162-.057.16-.06.159-.068.152-.076.147-.083.143-.089.14-.095.137-.102.127-.108.124-.111.118-.124.11-.121.112-.13.102-.138.096-.14.089-.143.082-.146.077-.153.066-.152.06-.16.055-.165.05-.165.04-.169.028-.175.022-.172.01-.171.006h-43.017l-.175-.007-.175-.009-.175-.022-.162-.029-.169-.038-.162-.051-.159-.054-.16-.06-.152-.067-.146-.077-.143-.082-.14-.09-.137-.095-.127-.102-.124-.111-.118-.111-.111-.118-.112-.124-.102-.127-.095-.137-.089-.14-.083-.143-.076-.147-.067-.152-.06-.16-.054-.159-.051-.162-.039-.168-.028-.163-.022-.175-.01-.175-.006-.174V4.479l.006-.172.01-.172.022-.174.028-.17.039-.168.05-.162.055-.159.06-.153.067-.152.076-.147.083-.143.089-.14.095-.137.102-.13.112-.121.111-.124.118-.111.124-.109.127-.101.137-.099.14-.086.143-.083.146-.076.153-.067.159-.06.16-.057.161-.045.169-.038.162-.029.175-.025.175-.013z"/>
    <path d="M228.61 18.432h1.51V16.92h-11.449l-.038.003-.038.01-.039.003-.07.019-.07.025-.066.029-.06.038-.061.045-.054.05-.048.055-.041.057-.039.06-.034.067-.023.07-.019.073-.01.038v.039l-.006.035V17.719l.007.038v.039l.01.035.006.035.012.038.01.032.013.035.034.07.039.06.041.054.048.057.054.051.06.038.06.039.068.035.035.012.035.013.035.01.034.006.039.006.038.007.038.003H219.769l-.754 4.54h-9.293v4.526h2.644l-.757 4.534h-18.21l4.534 8.598 3.235-.684.22-.028.216-.022.22-.023.216-.016.22-.012.219-.016.22-.01.219-.006.22.006.215.01.22.016.223.012.216.016.22.023.216.022.22.028 5.077 1.073.273.054.28.047.14.02.14.019.14.019.14.016.28.025.283.016.28.01.283.003.283-.004.28-.01.283-.015.277-.025.143-.016.14-.02.137-.019.14-.019.28-.047.277-.054 5.077-1.073.22-.028.219-.022.216-.023.217-.016.22-.012.219-.016.22-.01.219-.006.22.006.215.01.22.016.223.012.216.016.22.023.219.022.216.028 5.077 1.073.28.054.274.047.14.02.14.019.14.019.143.016.28.025.28.016.283.01.283.003v-9.216h-1.549l-.041-.004-.039-.006-.035-.006-.038-.007-.038-.01-.032-.015-.035-.01-.067-.035-.06-.038-.06-.038-.051-.05-.051-.058-.042-.054-.038-.06-.035-.07-.01-.036-.012-.031-.01-.039-.01-.038-.005-.032-.004-.038-.006-.038v-3.102l.006-.038.004-.038.006-.038.019-.07.022-.073.035-.064.038-.06.042-.064.05-.051.052-.048.06-.044.06-.035.067-.035.067-.026.076-.019.074-.01.08-.006h1.51v-4.527h-1.51l-.039-.006h-.041l-.039-.01h-.035l-.038-.012-.038-.01-.032-.01-.035-.015-.067-.035-.06-.038-.06-.038-.051-.051-.051-.051-.042-.06-.038-.061-.035-.07-.022-.067-.02-.076-.005-.032-.004-.038-.006-.045V19.151l.006-.038.004-.039.006-.038.019-.07.022-.073.035-.063.038-.06.042-.065.05-.05.052-.048.06-.045.06-.035.067-.035.067-.025.076-.02.035-.002.039-.01h.041l.038-.003zm-9.525 12.842v.039l-.004.044-.003.038-.01.032-.015.077-.023.066-.034.064-.039.067-.041.054-.05.054-.052.048-.06.044-.06.038-.068.032-.07.029-.07.016-.038.006-.038.006-.038.004h-4.533l-.038-.004-.039-.006-.038-.006-.038-.007-.032-.01-.035-.015-.035-.013-.067-.032-.06-.038-.06-.044-.055-.048-.047-.054-.042-.054-.041-.067-.029-.064-.015-.035-.013-.031-.01-.039-.01-.038-.002-.032-.01-.038v-.044l-.003-.039.003-.028v-.032l.006-.029.004-.028.505-3.026.013-.066.022-.067.023-.06.031-.058.035-.057.039-.051.047-.051.048-.041.048-.042.057-.035.054-.028.064-.026.063-.022.064-.013.07-.01.067-.006h3.95l.077.007.077.01.07.018.07.026.066.035.06.035.061.044.051.048.051.05.041.065.039.06.034.064.023.073.016.07.012.076.004.073v3.022zm7.409 0v.039l-.004.044-.006.038-.006.032-.016.077-.029.066-.032.064-.038.067-.044.054-.048.054-.054.048-.054.044-.067.038-.064.032-.035.013-.035.016-.035.01-.038.006-.038.006-.038.006-.038.004h-4.61l-.038-.004-.038-.006-.038-.006-.035-.007-.035-.01-.039-.015-.031-.013-.067-.032-.06-.038-.064-.044-.051-.048-.048-.054-.044-.054-.039-.067-.031-.064-.013-.035-.01-.031-.012-.039-.007-.038-.01-.032-.002-.038-.004-.044v-3.096l.004-.038.003-.038.01-.038.018-.07.023-.073.031-.064.039-.06.044-.064.048-.051.05-.048.064-.044.06-.035.068-.035.07-.026.07-.019.076-.01.076-.006h4.534l.076.007.076.01.073.018.07.026.064.035.067.035.054.044.054.048.048.05.044.065.038.06.032.064.029.073.016.07.012.076.004.073v3.022zm0-9.066v.038l-.004.045-.006.038-.006.032-.016.076-.029.067-.032.07-.038.06-.044.06-.048.052-.054.05-.054.039-.067.038-.064.035-.035.016-.035.01-.035.009-.038.013h-.038l-.038.01h-.038l-.038.005h-4.451l-.045-.006h-.038l-.038-.01h-.035l-.035-.012-.038-.01-.032-.01-.035-.015-.07-.035-.06-.038-.054-.038-.054-.051-.048-.051-.045-.06-.038-.061-.032-.07-.028-.067-.016-.076-.01-.032-.003-.038-.003-.045v-.098l.003-.032.006-.032.503-3.02.016-.069.019-.067.025-.057.032-.057.032-.058.038-.05.048-.051.05-.042.049-.041.054-.035.057-.029.06-.025.064-.022.067-.013.067-.013.066-.003h3.952l.038.003h.038l.038.01.038.003.073.019.07.025.064.035.067.035.054.045.054.048.048.05.044.064.038.06.032.064.029.073.016.07.006.038.006.039.004.038v3.057z" fill="#FFF"/>
    <path d="M228.61 18.432h1.51V16.92h-11.449l-.038.003-.038.01-.039.003-.07.019-.07.025-.066.029-.06.038-.061.045-.054.05-.048.055-.041.057-.039.06-.034.067-.023.07-.019.073-.01.038v.039l-.006.035V17.719l.007.038v.039l.01.035.006.035.012.038.01.032.013.035.034.07.039.06.041.054.048.057.054.051.06.038.06.039.068.035.035.012.035.013.035.01.034.006.039.006.038.007.038.003H219.769l-.754 4.54h-9.293v4.526h2.644l-.757 4.534h-18.21l4.534 8.598 3.235-.684.22-.028.216-.022.22-.023.216-.016.22-.012.219-.016.22-.01.219-.006.22.006.215.01.22.016.223.012.216.016.22.023.216.022.22.028 5.077 1.073.273.054.28.047.14.02.14.019.14.019.14.016.28.025.283.016.28.01.283.003.283-.004.28-.01.283-.015.277-.025.143-.016.14-.02.137-.019.14-.019.28-.047.277-.054 5.077-1.073.22-.028.219-.022.216-.023.217-.016.22-.012.219-.016.22-.01.219-.006.22.006.215.01.22.016.223.012.216.016.22.023.219.022.216.028 5.077 1.073.28.054.274.047.14.02.14.019.14.019.143.016.28.025.28.016.283.01.283.003v-9.216h-1.549l-.041-.004-.039-.006-.035-.006-.038-.007-.038-.01-.032-.015-.035-.01-.067-.035-.06-.038-.06-.038-.051-.05-.051-.058-.042-.054-.038-.06-.035-.07-.01-.036-.012-.031-.01-.039-.01-.038-.005-.032-.004-.038-.006-.038v-3.102l.006-.038.004-.038.006-.038.019-.07.022-.073.035-.064.038-.06.042-.064.05-.051.052-.048.06-.044.06-.035.067-.035.067-.026.076-.019.074-.01.08-.006h1.51v-4.527h-1.51l-.039-.006h-.041l-.039-.01h-.035l-.038-.012-.038-.01-.032-.01-.035-.015-.067-.035-.06-.038-.06-.038-.051-.051-.051-.051-.042-.06-.038-.061-.035-.07-.022-.067-.02-.076-.005-.032-.004-.038-.006-.045V19.151l.006-.038.004-.039.006-.038.019-.07.022-.073.035-.063.038-.06.042-.065.05-.05.052-.048.06-.045.06-.035.067-.035.067-.025.076-.02.035-.002.039-.01h.041z"/>
    <path d="M219.085 31.274v.039l-.004.044-.003.038-.01.032-.015.077-.023.066-.034.064-.039.067-.041.054-.05.054-.052.048-.06.044-.06.038-.068.032-.07.029-.07.016-.038.006-.038.006-.038.004h-4.533l-.038-.004-.039-.006-.038-.006-.038-.007-.032-.01-.035-.015-.035-.013-.067-.032-.06-.038-.06-.044-.055-.048-.047-.054-.042-.054-.041-.067-.029-.064-.015-.035-.013-.031-.01-.039-.01-.038-.002-.032-.01-.038v-.044l-.003-.039.003-.028v-.032l.006-.029.004-.028.505-3.026.013-.066.022-.067.023-.06.031-.058.035-.057.039-.051.047-.051.048-.041.048-.042.057-.035.054-.028.064-.026.063-.022.064-.013.07-.01.067-.006h3.95l.077.007.077.01.07.018.07.026.066.035.06.035.061.044.051.048.051.05.041.065.039.06.034.064.023.073.016.07.012.076.004.073zM226.494 31.274v.039l-.004.044-.006.038-.006.032-.016.077-.029.066-.032.064-.038.067-.044.054-.048.054-.054.048-.054.044-.067.038-.064.032-.035.013-.035.016-.035.01-.038.006-.038.006-.038.006-.038.004h-4.61l-.038-.004-.038-.006-.038-.006-.035-.007-.035-.01-.039-.015-.031-.013-.067-.032-.06-.038-.064-.044-.051-.048-.048-.054-.044-.054-.039-.067-.031-.064-.013-.035-.01-.031-.012-.039-.007-.038-.01-.032-.002-.038-.004-.044v-3.096l.004-.038.003-.038.01-.038.018-.07.023-.073.031-.064.039-.06.044-.064.048-.051.05-.048.064-.044.06-.035.068-.035.07-.026.07-.019.076-.01.076-.006h4.534l.076.007.076.01.073.018.07.026.064.035.067.035.054.044.054.048.048.05.044.065.038.06.032.064.029.073.016.07.012.076.004.073zM226.494 22.208v.038l-.004.045-.006.038-.006.032-.016.076-.029.067-.032.07-.038.06-.044.06-.048.052-.054.05-.054.039-.067.038-.064.035-.035.016-.035.01-.035.009-.038.013h-.038l-.038.01h-.038l-.038.005h-4.451l-.045-.006h-.038l-.038-.01h-.035l-.035-.012-.038-.01-.032-.01-.035-.015-.07-.035-.06-.038-.054-.038-.054-.051-.048-.051-.045-.06-.038-.061-.032-.07-.028-.067-.016-.076-.01-.032-.003-.038-.003-.045v-.098l.003-.032.006-.032.503-3.02.016-.069.019-.067.025-.057.032-.057.032-.058.038-.05.048-.051.05-.042.049-.041.054-.035.057-.029.06-.025.064-.022.067-.013.067-.013.066-.003h3.952l.038.003h.038l.038.01.038.003.073.019.07.025.064.035.067.035.054.045.054.048.048.05.044.064.038.06.032.064.029.073.016.07.006.038.006.039.004.038v.038z"/>
    <path fill="#FFF" d="M222.565 41.362l-.188-.022-.19-.02-.192-.018-.187-.016-.191-.01-.188-.013-.19-.006-.188-.01-.191.01-.188.006-.188.013-.19.01-.188.016-.188.019-.19.019-.189.022-5.02 1.056-.155.038-.16.03-.158.025-.153.028-.16.022-.158.023-.16.019-.158.016-.16.016-.159.012-.159.01-.155.013-.16.01h-.159l-.162.005h-.318l-.159-.006h-.162l-.16-.01-.155-.012-.162-.01-.16-.012-.155-.016-.16-.016-.159-.02-.159-.022-.155-.022-.16-.028-.159-.026-.152-.029-.16-.038-5.02-1.056-.187-.022-.19-.02-.189-.018-.187-.016-.191-.01-.191-.013-.185-.006-.19-.01-.191.01-.188.006-.188.013-.19.01-.188.016-.188.019-.19.019-.188.022-5.02 1.056-.156.038-.16.03-.158.025-.156.028-.156.022-.16.023-.155.019-.16.016-.158.016-.16.012-.155.01-.166.013-.155.01h-.16l-.159.005h-.159v1.435h.178l.179-.003.175-.01.178-.006.178-.01.178-.012.178-.016.175-.016.175-.016.178-.022.178-.026.172-.025.178-.032.175-.028.175-.035.175-.032 4.963-1.053.159-.013.16-.02.161-.012.156-.016.16-.01.158-.006.163-.01.159-.006.159.007.162.01.159.006.156.01.159.015.162.013.16.019.158.013 4.963 1.053.175.032.175.035.175.028.175.032.178.025.175.026.178.022.175.016.178.016.178.016.179.013.175.01.178.006.178.009.178.003h.353l.178-.003.182-.01.178-.006.178-.01.178-.012.178-.016.175-.016.175-.016.178-.022.178-.026.172-.025.178-.032.175-.028.175-.035.175-.032 4.966-1.053.156-.013.159-.02.16-.012.158-.016.16-.01.158-.006.163-.01.159-.006.159.007.162.01.159.006.159.01.156.015.165.013.156.019.16.013 4.962 1.053.175.032.175.035.175.028.175.032.178.025.178.026.172.022.178.016.178.016.178.016.178.013.175.01.179.006.18.009.176.003h.181v-1.435h-.162l-.16-.006h-.158l-.16-.01-.158-.012-.162-.01-.16-.012-.155-.016-.16-.016-.159-.02-.155-.022-.16-.022-.159-.028-.155-.026-.156-.029-.16-.038z"/>
    <path d="M222.565 41.362l-.188-.022-.19-.02-.192-.018-.187-.016-.191-.01-.188-.013-.19-.006-.188-.01-.191.01-.188.006-.188.013-.19.01-.188.016-.188.019-.19.019-.189.022-5.02 1.056-.155.038-.16.03-.158.025-.153.028-.16.022-.158.023-.16.019-.158.016-.16.016-.159.012-.159.01-.155.013-.16.01h-.159l-.162.005h-.318l-.159-.006h-.162l-.16-.01-.155-.012-.162-.01-.16-.012-.155-.016-.16-.016-.159-.02-.159-.022-.155-.022-.16-.028-.159-.026-.152-.029-.16-.038-5.02-1.056-.187-.022-.19-.02-.189-.018-.187-.016-.191-.01-.191-.013-.185-.006-.19-.01-.191.01-.188.006-.188.013-.19.01-.188.016-.188.019-.19.019-.188.022-5.02 1.056-.156.038-.16.03-.158.025-.156.028-.156.022-.16.023-.155.019-.16.016-.158.016-.16.012-.155.01-.166.013-.155.01h-.16l-.159.005h-.159v1.435h.178l.179-.003.175-.01.178-.006.178-.01.178-.012.178-.016.175-.016.175-.016.178-.022.178-.026.172-.025.178-.032.175-.028.175-.035.175-.032 4.963-1.053.159-.013.16-.02.161-.012.156-.016.16-.01.158-.006.163-.01.159-.006.159.007.162.01.159.006.156.01.159.015.162.013.16.019.158.013 4.963 1.053.175.032.175.035.175.028.175.032.178.025.175.026.178.022.175.016.178.016.178.016.179.013.175.01.178.006.178.009.178.003h.353l.178-.003.182-.01.178-.006.178-.01.178-.012.178-.016.175-.016.175-.016.178-.022.178-.026.172-.025.178-.032.175-.028.175-.035.175-.032 4.966-1.053.156-.013.159-.02.16-.012.158-.016.16-.01.158-.006.163-.01.159-.006.159.007.162.01.159.006.159.01.156.015.165.013.156.019.16.013 4.962 1.053.175.032.175.035.175.028.175.032.178.025.178.026.172.022.178.016.178.016.178.016.178.013.175.01.179.006.18.009.176.003h.181v-1.435h-.162l-.16-.006h-.158l-.16-.01-.158-.012-.162-.01-.16-.012-.155-.016-.16-.016-.159-.02-.155-.022-.16-.022-.159-.028-.155-.026-.156-.029-.16-.038z"/>
    <g>
      <path stroke="#FFF" stroke-width="2" d="M66.485 1.056H109.67l.175.016.169.022.169.032.168.038.162.045.16.054.152.063.16.067.146.077.143.082.14.086.13.099.134.105.118.105.124.111.11.121.112.124.102.13.096.137.085.137.083.143.076.15.07.15.06.155.055.16.045.161.044.166.022.172.026.171.012.175.007.175v43.01l-.007.175-.012.175-.026.169-.022.169-.044.168-.045.162-.054.16-.06.159-.07.152-.077.147-.083.143-.085.14-.096.13-.102.134-.111.124-.111.118-.124.11-.118.112-.134.102-.13.096-.14.089-.143.08-.147.079-.159.066-.152.06-.16.055-.162.05-.168.04-.169.028-.169.019-.175.012-.174.007h-43.01l-.179-.007-.172-.012-.171-.02-.172-.028-.166-.038-.162-.051-.159-.054-.156-.06-.152-.067-.147-.08-.143-.08-.14-.088-.133-.096-.13-.102-.125-.111-.12-.111-.112-.118-.112-.124-.101-.134-.096-.13-.086-.14-.082-.143-.077-.147-.067-.152-.063-.16-.054-.159-.045-.162-.038-.168-.032-.169-.022-.169-.016-.175V4.31l.016-.175.022-.171.032-.172.038-.166.045-.162.054-.159.063-.156.067-.15.077-.149.082-.143.086-.137.096-.136.101-.13.112-.125.111-.12.121-.112.124-.105.13-.105.134-.099.14-.086.143-.082.147-.077.152-.067.156-.063.16-.054.161-.045.166-.038.172-.032.171-.022.172-.016z"/>
      <path d="M91.175 10.243l.048-.05.04-.058.033-.057.028-.064.026-.063.013-.064.012-.07.003-.067-.003-.073-.012-.07-.016-.063-.023-.064-.031-.06-.035-.061-.042-.054-.041-.048-.051-.047-.054-.042-.057-.032-.06-.031-.064-.023-.07-.019-.067-.006-.07-.007-.073.007-.067.006-.067.02-.06.022-.06.025-.065.038-.054.042-.05.047-7.82 7.82h-6.324l-.102.006-.102.01-.102.015-.098.016-.099.023-.098.028-.093.029-.095.035-.096.038-.092.038-.089.045-.086.048-.083.054-.085.05-.08.058-.076.06-.08.067-.073.067-.07.067-.067.073-.067.076-.063.076-.06.083-.058.08-.05.089-.052.086-.047.092-.045.089-.038.095-.035.1-.035.098-3.814 12.496-.023.085-.016.086-.012.093-.003.089v5.49l.003.042.006.038.006.032.007.038.012.038.013.035.013.035.032.064.038.063.044.058.048.05.054.051.054.045.067.038.064.029.035.016.038.012.032.01.038.01.038.006.038.006h35.582V29.01h-7.367l-.035-.006h-.039l-.038-.01-.035-.006-.038-.013-.035-.01-.032-.012-.067-.032-.063-.038-.06-.041-.052-.051-.047-.054-.045-.06-.038-.061-.032-.067-.013-.035-.01-.032-.012-.038-.006-.035-.01-.038-.003-.038-.003-.038V19.15l.003-.038.003-.039.01-.038.019-.07.022-.07.032-.066.038-.06.045-.058.047-.057.051-.048.06-.045.064-.035.067-.035.067-.022.073-.019.038-.006.039-.007.035-.003h7.367v-1.358H84.342l6.833-6.834zM77.413 31.274l-.003.083-.013.073-.016.074-.029.066-.031.07-.035.06-.045.061-.05.051-.055.051-.054.038-.067.038-.063.035-.07.026-.074.016-.038.006-.038.006-.038.004H72.15l-.038-.004-.038-.006-.038-.006-.039-.007-.031-.01-.039-.015-.035-.01-.063-.035-.064-.038-.057-.038-.054-.05-.048-.052-.044-.06-.039-.06-.031-.07-.013-.036-.013-.031-.01-.039-.009-.035-.006-.035-.007-.038-.003-.038v-.045l.003-.054.007-.054.01-.054.015-.054 3.652-11.97.016-.049.016-.04.02-.042.018-.042.045-.08.05-.075.052-.07.06-.067.064-.064.073-.05.073-.055.076-.041.08-.038.083-.035.089-.026.089-.013.089-.012.092-.003h.134l.057.003.06.006.054.013.055.01.054.015.05.02.055.018.047.023.051.028.045.026.047.028.042.032.048.032.04.038.04.038.037.039.032.04.035.042.035.045.025.048.03.047.021.051.023.048.025.05.02.052.015.057.01.054.012.054.004.057.006.058v11.916zm3.665-.222v.06l-.007.054-.006.058-.01.057-.012.054-.016.05-.016.055-.022.05-.023.052-.025.047-.029.051-.028.045-.032.044-.035.042-.035.041-.038.038-.039.038-.038.035-.044.039-.045.028-.048.032-.044.025-.05.026-.049.022-.054.02-.054.018-.05.016-.058.01-.054.013-.054.006-.06.006h-.115l-.06-.006-.055-.006-.054-.013-.06-.01-.051-.016-.054-.019-.051-.019-.05-.022-.049-.026-.05-.025-.045-.032-.045-.028-.041-.039-.041-.035-.039-.038-.035-.038-.038-.041-.031-.042-.035-.044-.032-.045-.026-.05-.022-.048-.022-.051-.023-.051-.019-.054-.016-.051-.01-.054-.012-.057-.003-.058-.01-.054V19.358l.01-.058.003-.057.013-.054.01-.054.015-.057.02-.051.022-.051.022-.048.022-.05.026-.048.032-.048.035-.045.031-.041.038-.041.035-.039.039-.038.041-.038.041-.032.045-.032.044-.028.051-.026.048-.028.051-.023.05-.019.055-.019.05-.016.061-.01.054-.012.054-.006.06-.003h.115l.06.003.055.006.054.013.057.01.051.015.054.02.054.018.048.023.051.028.044.026.048.028.045.032.044.032.038.038.039.038.038.039.035.04.035.042.032.045.028.048.029.047.025.051.023.048.022.05.016.052.016.057.012.054.01.054.006.057.007.058v11.694zm5.026-11.86v-.079l.006-.039.007-.038.019-.07.028-.07.03-.066.037-.06.045-.058.044-.057.058-.048.057-.045.063-.035.064-.035.07-.022.073-.019.035-.006.038-.007.042-.003h9.143l.038.003.038.007.038.006.07.02.07.021.067.035.06.035.06.045.052.048.05.057.042.057.035.06.038.067.026.07.019.07.01.077.006.08v9.06l-.007.079-.01.076-.018.073-.026.067-.038.067-.035.06-.041.06-.051.055-.051.05-.06.042-.061.038-.067.032-.07.022-.07.02-.038.01H96l-.038.005H86.82l-.042-.006h-.038l-.035-.01-.035-.006-.038-.013-.035-.01-.035-.012-.064-.032-.063-.038-.057-.041-.058-.051-.044-.054-.045-.06-.038-.061-.029-.067-.015-.035-.013-.032-.01-.038-.01-.035-.006-.038-.006-.038v-9.14zm-1.362.226v11.694l-.006.054-.006.058-.01.057-.013.054-.019.05-.016.055-.022.05-.022.052-.022.047-.032.051-.022.045-.039.044-.031.042-.035.041-.039.038-.035.038-.044.035-.045.039-.041.028-.05.032-.045.025-.048.026-.048.022-.054.02-.05.018-.055.016-.057.01-.054.013-.058.006-.06.006h-.111l-.06-.006-.058-.006-.054-.013-.054-.01-.054-.016-.051-.019-.054-.019-.051-.022-.048-.026-.048-.025-.047-.032-.045-.028-.041-.039-.042-.035-.038-.038-.038-.038-.038-.041-.029-.042-.035-.044-.028-.045-.029-.05-.022-.048-.023-.051-.022-.051-.019-.054-.016-.051-.013-.054-.01-.057-.002-.058-.01-.054V19.358l.01-.058.003-.057.01-.054.012-.054.016-.057.02-.051.021-.051.023-.048.022-.05.029-.048.028-.048.035-.045.029-.041.038-.041.038-.039.038-.038.042-.038.041-.032.045-.032.047-.028.048-.026.048-.028.05-.023.055-.019.05-.019.055-.016.054-.01.054-.012.057-.006.06-.003h.112l.06.003.058.006.054.013.057.01.054.015.051.02.054.018.048.023.048.028.044.026.051.028.041.032.045.032.044.038.035.038.039.039.035.04.031.042.039.045.022.048.032.047.022.051.022.048.022.05.016.052.02.057.012.054.01.054.006.057.006.058v.06z" fill="#FFF"/>
      <path d="M91.175 10.243l.048-.05.04-.058.033-.057.028-.064.026-.063.013-.064.012-.07.003-.067-.003-.073-.012-.07-.016-.063-.023-.064-.031-.06-.035-.061-.042-.054-.041-.048-.051-.047-.054-.042-.057-.032-.06-.031-.064-.023-.07-.019-.067-.006-.07-.007-.073.007-.067.006-.067.02-.06.022-.06.025-.065.038-.054.042-.05.047-7.82 7.82h-6.324l-.102.006-.102.01-.102.015-.098.016-.099.023-.098.028-.093.029-.095.035-.096.038-.092.038-.089.045-.086.048-.083.054-.085.05-.08.058-.076.06-.08.067-.073.067-.07.067-.067.073-.067.076-.063.076-.06.083-.058.08-.05.089-.052.086-.047.092-.045.089-.038.095-.035.1-.035.098-3.814 12.496-.023.085-.016.086-.012.093-.003.089v5.49l.003.042.006.038.006.032.007.038.012.038.013.035.013.035.032.064.038.063.044.058.048.05.054.051.054.045.067.038.064.029.035.016.038.012.032.01.038.01.038.006.038.006h35.582V29.01h-7.367l-.035-.006h-.039l-.038-.01-.035-.006-.038-.013-.035-.01-.032-.012-.067-.032-.063-.038-.06-.041-.052-.051-.047-.054-.045-.06-.038-.061-.032-.067-.013-.035-.01-.032-.012-.038-.006-.035-.01-.038-.003-.038-.003-.038V19.15l.003-.038.003-.039.01-.038.019-.07.022-.07.032-.066.038-.06.045-.058.047-.057.051-.048.06-.045.064-.035.067-.035.067-.022.073-.019.038-.006.039-.007.035-.003h7.367v-1.358H84.342z"/>
      <path d="M77.413 31.274l-.003.083-.013.073-.016.074-.029.066-.031.07-.035.06-.045.061-.05.051-.055.051-.054.038-.067.038-.063.035-.07.026-.074.016-.038.006-.038.006-.038.004H72.15l-.038-.004-.038-.006-.038-.006-.039-.007-.031-.01-.039-.015-.035-.01-.063-.035-.064-.038-.057-.038-.054-.05-.048-.052-.044-.06-.039-.06-.031-.07-.013-.036-.013-.031-.01-.039-.009-.035-.006-.035-.007-.038-.003-.038v-.045l.003-.054.007-.054.01-.054.015-.054 3.652-11.97.016-.049.016-.04.02-.042.018-.042.045-.08.05-.075.052-.07.06-.067.064-.064.073-.05.073-.055.076-.041.08-.038.083-.035.089-.026.089-.013.089-.012.092-.003h.134l.057.003.06.006.054.013.055.01.054.015.05.02.055.018.047.023.051.028.045.026.047.028.042.032.048.032.04.038.04.038.037.039.032.04.035.042.035.045.025.048.03.047.021.051.023.048.025.05.02.052.015.057.01.054.012.054.004.057.006.058v.06zM81.078 31.052v.06l-.007.054-.006.058-.01.057-.012.054-.016.05-.016.055-.022.05-.023.052-.025.047-.029.051-.028.045-.032.044-.035.042-.035.041-.038.038-.039.038-.038.035-.044.039-.045.028-.048.032-.044.025-.05.026-.049.022-.054.02-.054.018-.05.016-.058.01-.054.013-.054.006-.06.006h-.115l-.06-.006-.055-.006-.054-.013-.06-.01-.051-.016-.054-.019-.051-.019-.05-.022-.049-.026-.05-.025-.045-.032-.045-.028-.041-.039-.041-.035-.039-.038-.035-.038-.038-.041-.031-.042-.035-.044-.032-.045-.026-.05-.022-.048-.022-.051-.023-.051-.019-.054-.016-.051-.01-.054-.012-.057-.003-.058-.01-.054V19.358l.01-.058.003-.057.013-.054.01-.054.015-.057.02-.051.022-.051.022-.048.022-.05.026-.048.032-.048.035-.045.031-.041.038-.041.035-.039.039-.038.041-.038.041-.032.045-.032.044-.028.051-.026.048-.028.051-.023.05-.019.055-.019.05-.016.061-.01.054-.012.054-.006.06-.003h.115l.06.003.055.006.054.013.057.01.051.015.054.02.054.018.048.023.051.028.044.026.048.028.045.032.044.032.038.038.039.038.038.039.035.04.035.042.032.045.028.048.029.047.025.051.023.048.022.05.016.052.016.057.012.054.01.054.006.057.007.058v.06zM86.104 19.192v-.079l.006-.039.007-.038.019-.07.028-.07.03-.066.037-.06.045-.058.044-.057.058-.048.057-.045.063-.035.064-.035.07-.022.073-.019.035-.006.038-.007.042-.003h9.143l.038.003.038.007.038.006.07.02.07.021.067.035.06.035.06.045.052.048.05.057.042.057.035.06.038.067.026.07.019.07.01.077.006.08v9.06l-.007.079-.01.076-.018.073-.026.067-.038.067-.035.06-.041.06-.051.055-.051.05-.06.042-.061.038-.067.032-.07.022-.07.02-.038.01H96l-.038.005H86.82l-.042-.006h-.038l-.035-.01-.035-.006-.038-.013-.035-.01-.035-.012-.064-.032-.063-.038-.057-.041-.058-.051-.044-.054-.045-.06-.038-.061-.029-.067-.015-.035-.013-.032-.01-.038-.01-.035-.006-.038-.006-.038v-.08zM84.742 19.418v11.694l-.006.054-.006.058-.01.057-.013.054-.019.05-.016.055-.022.05-.022.052-.022.047-.032.051-.022.045-.039.044-.031.042-.035.041-.039.038-.035.038-.044.035-.045.039-.041.028-.05.032-.045.025-.048.026-.048.022-.054.02-.05.018-.055.016-.057.01-.054.013-.058.006-.06.006h-.111l-.06-.006-.058-.006-.054-.013-.054-.01-.054-.016-.051-.019-.054-.019-.051-.022-.048-.026-.048-.025-.047-.032-.045-.028-.041-.039-.042-.035-.038-.038-.038-.038-.038-.041-.029-.042-.035-.044-.028-.045-.029-.05-.022-.048-.023-.051-.022-.051-.019-.054-.016-.051-.013-.054-.01-.057-.002-.058-.01-.054V19.358l.01-.058.003-.057.01-.054.012-.054.016-.057.02-.051.021-.051.023-.048.022-.05.029-.048.028-.048.035-.045.029-.041.038-.041.038-.039.038-.038.042-.038.041-.032.045-.032.047-.028.048-.026.048-.028.05-.023.055-.019.05-.019.055-.016.054-.01.054-.012.057-.006.06-.003h.112l.06.003.058.006.054.013.057.01.054.015.051.02.054.018.048.023.048.028.044.026.051.028.041.032.045.032.044.038.035.038.039.039.035.04.031.042.039.045.022.048.032.047.022.051.022.048.022.05.016.052.02.057.012.054.01.054.006.057.006.058z"/>
      <path fill="#FFF" d="M87.287 39.437h-7.612l.06.144.067.14.07.136.076.134.08.134.089.127.089.12.095.122.093.114.102.112.104.11.112.103.114.095.115.099.124.089.118.086.127.082.13.077.13.07.138.07.136.063.137.058.143.054.143.047.15.042.146.038.147.029.152.028.153.016.156.016.156.006.152.007.16-.007.155-.006.153-.016.153-.016.153-.028.149-.03.15-.037.143-.042.14-.047.146-.054.137-.058.137-.063.136-.07.13-.07.131-.077.124-.082.128-.086.114-.09.118-.098.114-.095.108-.102.105-.111.105-.112.096-.114.095-.121.086-.121.09-.127.079-.134.073-.134.073-.136.067-.14z"/>
      <path d="M87.287 39.437h-7.612l.06.144.067.14.07.136.076.134.08.134.089.127.089.12.095.122.093.114.102.112.104.11.112.103.114.095.115.099.124.089.118.086.127.082.13.077.13.07.138.07.136.063.137.058.143.054.143.047.15.042.146.038.147.029.152.028.153.016.156.016.156.006.152.007.16-.007.155-.006.153-.016.153-.016.153-.028.149-.03.15-.037.143-.042.14-.047.146-.054.137-.058.137-.063.136-.07.13-.07.131-.077.124-.082.128-.086.114-.09.118-.098.114-.095.108-.102.105-.111.105-.112.096-.114.095-.121.086-.121.09-.127.079-.134.073-.134.073-.136.067-.14z"/>
      <path fill="#FFF" d="M96.354 39.437h-7.616l.064.144.066.14.07.136.077.134.08.134.088.127.086.12.093.122.098.114.102.112.105.11.111.103.115.095.114.099.124.089.118.086.127.082.13.077.131.07.134.07.137.063.14.058.143.054.143.047.15.042.146.038.146.029.153.028.153.016.155.016.156.006.153.007.156-.007.159-.006.153-.016.152-.016.153-.028.146-.03.147-.037.15-.042.14-.047.145-.054.14-.058.134-.063.134-.07.133-.07.128-.077.127-.082.12-.086.122-.09.117-.098.115-.095.108-.102.105-.111.105-.112.099-.114.092-.121.086-.121.089-.127.08-.134.072-.134.074-.136.066-.14z"/>
      <path d="M96.354 39.437h-7.616l.064.144.066.14.07.136.077.134.08.134.088.127.086.12.093.122.098.114.102.112.105.11.111.103.115.095.114.099.124.089.118.086.127.082.13.077.131.07.134.07.137.063.14.058.143.054.143.047.15.042.146.038.146.029.153.028.153.016.155.016.156.006.153.007.156-.007.159-.006.153-.016.152-.016.153-.028.146-.03.147-.037.15-.042.14-.047.145-.054.14-.058.134-.063.134-.07.133-.07.128-.077.127-.082.12-.086.122-.09.117-.098.115-.095.108-.102.105-.111.105-.112.099-.114.092-.121.086-.121.089-.127.08-.134.072-.134.074-.136.066-.14z"/>
      <path fill="#FFF" d="M69.858 42.762h36.262v1.358H69.858z"/>
      <path d="M69.858 42.762h36.262v1.358H69.858z"/>
      <path fill="#FFF" d="M69.858 7.858h36.262v.757H69.858z"/>
      <path d="M69.858 7.858h36.262v.757H69.858z"/>
    </g>
    <g>
      <path stroke="#FFF" stroke-width="2" d="M314.1 1.056h43.978l.156.013.15.019.145.028.15.032.143.045.14.048.137.05.133.06.13.07.128.07.124.08.118.083.114.092.112.096.105.095.095.105.096.112.092.114.083.118.08.124.07.127.07.13.06.134.05.137.048.14.045.143.032.15.028.146.02.15.012.155v44.13l-.013.156-.019.15-.028.146-.032.15-.045.143-.048.14-.05.136-.06.134-.07.13-.07.128-.08.124-.083.117-.092.115-.096.111-.095.105-.105.096-.112.095-.114.092-.118.083-.124.08-.127.07-.13.07-.134.06-.137.051-.14.048-.143.044-.15.032-.146.029-.15.019-.155.012h-44.13l-.156-.012-.15-.02-.146-.028-.15-.032-.143-.044-.14-.048-.136-.05-.134-.061-.13-.07-.128-.07-.124-.08-.114-.083-.118-.092-.111-.095-.105-.096-.096-.105-.095-.111-.092-.115-.083-.117-.08-.124-.07-.128-.07-.13-.06-.134-.051-.136-.048-.14-.044-.144-.032-.149-.029-.146-.019-.15-.012-.156V3.922l.012-.156.02-.15.028-.145.032-.15.044-.143.048-.14.05-.137.061-.133.07-.13.07-.128.08-.124.083-.118.092-.114.095-.112.096-.105.105-.095.111-.096.118-.092.114-.083.124-.08.128-.07.13-.07.134-.06.136-.05.14-.048.144-.045.149-.032.146-.028.15-.02.156-.012z"/>
      <path d="M353.392 36.355l-.048-.006-.048-.004-.044-.006-.048-.006-34.755-8.691-.06-.02-.06-.022-.055-.025-.054-.035-.05-.035-.048-.038-.042-.048-.041-.045-.035-.05-.035-.052-.026-.057-.022-.057-.019-.06-.01-.06-.009-.065-.003-.063V9.473l.006-.082.013-.08.016-.086.016-.08.022-.079.029-.076.025-.076.035-.074.038-.073.042-.07.04-.066.045-.067.051-.06.054-.061.054-.06.058-.051.06-.055.064-.05.063-.045.07-.045.067-.038.073-.035.074-.038.076-.029.076-.025.08-.022.08-.023.082-.01.083-.012.082-.006h.188l.108.013.102.015.102.023 32.941 8.401.067.016.064.023.07.028.064.026.06.031.064.03.057.034.06.038.054.038.058.042.05.041.051.045.048.05.045.048.044.048.045.054.041.051.035.06.038.054.032.06.032.061.029.06.025.064.022.06.023.07.022.064.013.067.015.07.01.067.006.07.003.07.004.073v17.672l-.004.038-.003.038-.006.035-.01.038-.012.035-.01.039-.016.031-.028.067-.039.064-.044.057-.051.051-.054.05-.057.045-.06.039-.068.031-.031.016-.039.01-.035.013-.038.006-.038.006-.035.004-.038.006h-.038zm-26.824-24.422v-.039l-.003-.035-.004-.038-.01-.038-.015-.073-.029-.07-.028-.064-.039-.063-.047-.06-.048-.052-.05-.047-.058-.048-.067-.038-.06-.029-.077-.025-.07-.023-.076-.01-.073-.002h-5.666l-.08.003-.073.01-.076.022-.067.025-.063.029-.064.038-.057.048-.058.047-.05.051-.042.06-.035.064-.035.064-.022.07-.02.073-.012.076-.003.074v9.066l.003.083.013.07.019.076.022.067.035.064.035.066.041.054.051.055.058.047.057.045.064.038.063.032.067.025.076.02.035.009.038.003.042.003H325.849l.038-.003.038-.003.038-.01.038-.006.032-.013.038-.01.039-.015.06-.032.067-.038.057-.045.051-.047.048-.055.047-.054.039-.066.028-.064.016-.035.013-.032.01-.038.006-.038.01-.035.003-.035.003-.045V11.933zm8.69 2.217l-.006-.038v-.038l-.006-.035-.003-.039-.02-.073-.025-.067-.031-.07-.039-.06-.044-.057-.051-.054-.051-.048-.057-.041-.064-.039-.067-.035-.07-.025-.07-.016-.038-.006-.038-.01h-.038l-.038-.003h-5.666l-.038.003h-.042l-.038.01-.035.006-.073.016-.07.025-.064.035-.063.039-.057.041-.055.048-.047.054-.045.057-.038.06-.029.07-.028.067-.02.073-.012.074V23.299l.013.073.019.073.028.067.029.07.038.06.045.061.047.051.055.051.057.038.063.038.064.038.07.023.073.016.035.01.038.002.042.004H334.54l.038-.004.038-.003.038-.01.035-.006.035-.01.039-.012.031-.01.067-.038.064-.038.057-.038.05-.05.052-.052.044-.06.039-.06.031-.07.016-.036.01-.032.013-.035.006-.038.003-.035.006-.038v-.038l.007-.045V14.15zm8.686 2.217v-.076l-.007-.038-.006-.038-.02-.07-.028-.07-.029-.067-.038-.06-.044-.061-.048-.054-.054-.048-.057-.044-.064-.039-.064-.031-.07-.03-.073-.015-.038-.006-.038-.007h-.038l-.038-.003h-5.666l-.042.003h-.038l-.038.007-.035.006-.073.016-.067.029-.067.031-.063.039-.058.044-.057.048-.044.054-.045.06-.038.06-.032.068-.025.07-.02.07-.009.076-.006.076v9.067l.006.076.01.076.019.074.025.066.032.067.038.06.045.061.044.054.057.048.058.044.063.039.067.031.067.023.073.019.035.01.038.003.038.003h5.746l.038-.003.038-.004.038-.01.035-.006.038-.012.035-.01.035-.013.064-.031.064-.039.057-.044.054-.048.048-.054.044-.06.038-.06.03-.068.015-.035.013-.031.01-.039.009-.035.006-.038.007-.038v-9.143zm8.69 2.218v-.039l-.003-.038-.003-.038-.01-.038-.018-.07-.026-.073-.032-.064-.035-.064-.047-.057-.048-.054-.054-.048-.057-.044-.064-.038-.064-.032-.073-.026-.07-.019-.038-.01-.038-.002-.038-.004h-5.739l-.045.004-.032.003-.038.01-.076.018-.07.026-.06.032-.067.038-.058.044-.054.048-.044.054-.048.057-.038.064-.029.064-.028.073-.016.07-.01.038-.003.038-.003.038v9.14l.003.038.003.038.01.039.016.07.028.073.029.063.038.064.048.06.044.051.054.048.058.048.066.038.06.029.07.025.077.02.038.009.032.003.045.003h5.739l.038-.003.038-.003.038-.01.038-.006.032-.013.038-.01.035-.015.064-.03.064-.037.057-.048.054-.048.048-.05.047-.061.035-.064.032-.063.016-.035.01-.038.012-.032.007-.038.01-.039.002-.038.004-.038v-9.101z" fill="#FFF"/>
      <path d="M353.392 36.355l-.048-.006-.048-.004-.044-.006-.048-.006-34.755-8.691-.06-.02-.06-.022-.055-.025-.054-.035-.05-.035-.048-.038-.042-.048-.041-.045-.035-.05-.035-.052-.026-.057-.022-.057-.019-.06-.01-.06-.009-.065-.003-.063V9.473l.006-.082.013-.08.016-.086.016-.08.022-.079.029-.076.025-.076.035-.074.038-.073.042-.07.04-.066.045-.067.051-.06.054-.061.054-.06.058-.051.06-.055.064-.05.063-.045.07-.045.067-.038.073-.035.074-.038.076-.029.076-.025.08-.022.08-.023.082-.01.083-.012.082-.006h.188l.108.013.102.015.102.023 32.941 8.401.067.016.064.023.07.028.064.026.06.031.064.03.057.034.06.038.054.038.058.042.05.041.051.045.048.05.045.048.044.048.045.054.041.051.035.06.038.054.032.06.032.061.029.06.025.064.022.06.023.07.022.064.013.067.015.07.01.067.006.07.003.07.004.073v17.672l-.004.038-.003.038-.006.035-.01.038-.012.035-.01.039-.016.031-.028.067-.039.064-.044.057-.051.051-.054.05-.057.045-.06.039-.068.031-.031.016-.039.01-.035.013-.038.006-.038.006-.035.004-.038.006z"/>
      <path d="M326.568 11.933v-.039l-.003-.035-.004-.038-.01-.038-.015-.073-.029-.07-.028-.064-.039-.063-.047-.06-.048-.052-.05-.047-.058-.048-.067-.038-.06-.029-.077-.025-.07-.023-.076-.01-.073-.002h-5.666l-.08.003-.073.01-.076.022-.067.025-.063.029-.064.038-.057.048-.058.047-.05.051-.042.06-.035.064-.035.064-.022.07-.02.073-.012.076-.003.074v9.066l.003.083.013.07.019.076.022.067.035.064.035.066.041.054.051.055.058.047.057.045.064.038.063.032.067.025.076.02.035.009.038.003.042.003H325.849l.038-.003.038-.003.038-.01.038-.006.032-.013.038-.01.039-.015.06-.032.067-.038.057-.045.051-.047.048-.055.047-.054.039-.066.028-.064.016-.035.013-.032.01-.038.006-.038.01-.035.003-.035.003-.045V21zM335.259 14.15l-.007-.038v-.038l-.006-.035-.003-.039-.02-.073-.025-.067-.031-.07-.039-.06-.044-.057-.051-.054-.051-.048-.057-.041-.064-.039-.067-.035-.07-.025-.07-.016-.038-.006-.038-.01h-.038l-.038-.003h-5.666l-.038.003h-.042l-.038.01-.035.006-.073.016-.07.025-.064.035-.063.039-.057.041-.055.048-.047.054-.045.057-.038.06-.029.07-.028.067-.02.073-.012.074V23.299l.013.073.019.073.028.067.029.07.038.06.045.061.047.051.055.051.057.038.063.038.064.038.07.023.073.016.035.01.038.002.042.004H334.54l.038-.004.038-.003.038-.01.035-.006.035-.01.039-.012.031-.01.067-.038.064-.038.057-.038.05-.05.052-.052.044-.06.039-.06.031-.07.016-.036.01-.032.013-.035.006-.038.003-.035.006-.038v-.038l.007-.045zM343.944 16.367v-.076l-.007-.038-.006-.038-.02-.07-.028-.07-.029-.067-.038-.06-.044-.061-.048-.054-.054-.048-.057-.044-.064-.039-.064-.031-.07-.03-.073-.015-.038-.006-.038-.007h-.038l-.038-.003h-5.666l-.042.003h-.038l-.038.007-.035.006-.073.016-.067.029-.067.031-.063.039-.058.044-.057.048-.044.054-.045.06-.038.06-.032.068-.025.07-.02.07-.009.076-.006.076v9.067l.006.076.01.076.019.074.025.066.032.067.038.06.045.061.044.054.057.048.058.044.063.039.067.031.067.023.073.019.035.01.038.003.038.003h5.746l.038-.003.038-.004.038-.01.035-.006.038-.012.035-.01.035-.013.064-.031.064-.039.057-.044.054-.048.048-.054.044-.06.038-.06.03-.068.015-.035.013-.031.01-.039.009-.035.006-.038.007-.038v-.076zM352.635 18.585v-.039l-.004-.038-.003-.038-.01-.038-.018-.07-.026-.073-.032-.064-.035-.064-.047-.057-.048-.054-.054-.048-.057-.044-.064-.038-.064-.032-.073-.026-.07-.019-.038-.01-.038-.002-.038-.004h-5.739l-.045.004-.032.003-.038.01-.076.018-.07.026-.06.032-.067.038-.058.044-.054.048-.044.054-.048.057-.038.064-.029.064-.028.073-.016.07-.01.038-.003.038-.003.038v9.14l.003.038.003.038.01.039.016.07.028.073.029.063.038.064.048.06.044.051.054.048.058.048.066.038.06.029.07.025.077.02.038.009.032.003.045.003h5.739l.038-.003.038-.003.038-.01.038-.006.032-.013.038-.01.035-.015.064-.03.064-.037.057-.048.054-.048.048-.05.047-.061.035-.064.032-.063.016-.035.01-.038.012-.032.007-.038.01-.039.002-.038.004-.038v-.035z"/>
      <path fill="#FFF" d="M317.88 33.492l36.266 9.07v1.558l-36.266-9.066z"/>
      <path d="M317.88 33.492l36.266 9.07v1.558l-36.266-9.066z"/>
      <path fill="#FFF" d="M345.728 36.864l-.003.111-.006.112-.016.11-.02.11-.025.104-.032.105-.031.102-.039.098-.047.1-.045.094-.054.09-.06.085-.06.09-.064.082-.067.08-.073.076-.08.07-.076.073-.083.064-.086.06-.089.058-.092.05-.093.051-.098.042-.099.041-.102.035-.108.029-.105.022-.105.02-.111.015-.111.006-.115.007-.108-.007-.115-.006-.108-.016-.108-.019-.105-.022-.105-.029-.102-.035-.098-.041-.099-.042-.092-.05-.092-.051-.093-.058-.082-.06-.083-.064-.08-.073-.076-.07-.073-.076-.067-.08-.067-.082-.06-.09-.054-.085-.054-.09-.051-.095-.045-.099-.035-.098-.038-.102-.029-.105-.025-.105-.02-.108-.009-.111-.016-.112v-.226l.016-.108.01-.108.019-.111.025-.105.03-.105.037-.099.035-.102.045-.095.05-.096.055-.095.054-.086.06-.086.067-.083.067-.079.073-.076.076-.074.08-.066.083-.067.082-.06.093-.058.092-.054.092-.048.099-.044.098-.038.102-.035.105-.029.105-.025.108-.02.108-.012.115-.01.108-.003.115.003.111.01.111.012.105.02.105.025.108.029.102.035.099.038.098.044.093.048.092.054.09.057.085.06.083.068.076.066.08.074.073.076.067.08.063.082.06.086.061.086.054.095.045.096.047.095.039.102.031.099.032.105.026.105.019.111.016.108.006.108z"/>
      <path d="M345.728 36.864l-.003.111-.006.112-.016.11-.02.11-.025.104-.032.105-.031.102-.039.098-.047.1-.045.094-.054.09-.06.085-.06.09-.064.082-.067.08-.073.076-.08.07-.076.073-.083.064-.086.06-.089.058-.092.05-.093.051-.098.042-.099.041-.102.035-.108.029-.105.022-.105.02-.111.015-.111.006-.115.007-.108-.007-.115-.006-.108-.016-.108-.019-.105-.022-.105-.029-.102-.035-.098-.041-.099-.042-.092-.05-.092-.051-.093-.058-.082-.06-.083-.064-.08-.073-.076-.07-.073-.076-.067-.08-.067-.082-.06-.09-.054-.085-.054-.09-.051-.095-.045-.099-.035-.098-.038-.102-.029-.105-.025-.105-.02-.108-.009-.111-.016-.112v-.226l.016-.108.01-.108.019-.111.025-.105.03-.105.037-.099.035-.102.045-.095.05-.096.055-.095.054-.086.06-.086.067-.083.067-.079.073-.076.076-.074.08-.066.083-.067.082-.06.093-.058.092-.054.092-.048.099-.044.098-.038.102-.035.105-.029.105-.025.108-.02.108-.012.115-.01.108-.003.115.003.111.01.111.012.105.02.105.025.108.029.102.035.099.038.098.044.093.048.092.054.09.057.085.06.083.068.076.066.08.074.073.076.067.08.063.082.06.086.061.086.054.095.045.096.047.095.039.102.031.099.032.105.026.105.019.111.016.108.006.108z"/>
      <path fill="#FFF" d="M351.174 38.34v.111l-.01.115-.012.108-.016.108-.028.105-.032.102-.032.105-.038.099-.045.095-.047.095-.055.093-.057.089-.06.086-.064.082-.07.08-.073.076-.076.073-.08.07-.083.064-.082.06-.093.058-.089.054-.095.047-.099.042-.098.041-.102.035-.105.029-.108.022-.102.022-.111.016-.115.007-.111.003-.112-.003-.11-.007-.112-.016-.108-.022-.105-.022-.102-.029-.105-.035-.099-.041-.095-.042-.096-.047-.092-.054-.089-.058-.086-.06-.083-.064-.08-.07-.076-.073-.07-.076-.07-.08-.063-.082-.064-.086-.057-.09-.054-.092-.045-.095-.044-.095-.038-.1-.039-.104-.028-.102-.022-.105-.023-.108-.016-.108-.006-.115-.003-.111.003-.111.006-.112.016-.108.023-.108.022-.108.028-.102.039-.102.038-.102.044-.095.045-.095.054-.093.057-.089.064-.086.064-.082.07-.08.07-.076.076-.07.08-.067.082-.07.086-.06.089-.058.092-.054.096-.048.095-.04.099-.042.105-.032.102-.032.105-.022.108-.022.111-.013.111-.01h.223l.115.01.11.013.103.022.108.022.105.032.102.032.098.041.099.041.095.048.09.054.092.057.082.06.083.07.08.068.076.07.073.076.07.08.064.082.06.086.057.09.055.092.047.095.045.095.038.102.032.102.032.102.028.108.016.108.013.108.01.112z"/>
      <path d="M351.174 38.34v.111l-.01.115-.012.108-.016.108-.028.105-.032.102-.032.105-.038.099-.045.095-.047.095-.055.093-.057.089-.06.086-.064.082-.07.08-.073.076-.076.073-.08.07-.083.064-.082.06-.093.058-.089.054-.095.047-.099.042-.098.041-.102.035-.105.029-.108.022-.102.022-.111.016-.115.007-.111.003-.112-.003-.11-.007-.112-.016-.108-.022-.105-.022-.102-.029-.105-.035-.099-.041-.095-.042-.096-.047-.092-.054-.089-.058-.086-.06-.083-.064-.08-.07-.076-.073-.07-.076-.07-.08-.063-.082-.064-.086-.057-.09-.054-.092-.045-.095-.044-.095-.038-.1-.039-.104-.028-.102-.022-.105-.023-.108-.016-.108-.006-.115-.003-.111.003-.111.006-.112.016-.108.023-.108.022-.108.028-.102.039-.102.038-.102.044-.095.045-.095.054-.093.057-.089.064-.086.064-.082.07-.08.07-.076.076-.07.08-.067.082-.07.086-.06.089-.058.092-.054.096-.048.095-.04.099-.042.105-.032.102-.032.105-.022.108-.022.111-.013.111-.01h.223l.115.01.11.013.103.022.108.022.105.032.102.032.098.041.099.041.095.048.09.054.092.057.082.06.083.07.08.068.076.07.073.076.07.08.064.082.06.086.057.09.055.092.047.095.045.095.038.102.032.102.032.102.028.108.016.108.013.108.01.112z"/>
      <path fill="#FFF" d="M330.741 33.116l-.006.115-.006.108-.016.108-.02.112-.022.105-.028.101-.038.102-.039.102-.044.095-.048.093-.054.095-.054.086-.06.09-.07.082-.067.08-.07.076-.077.07-.082.07-.083.066-.086.06-.086.058-.095.051-.092.05-.099.042-.102.042-.098.035-.102.028-.105.026-.112.016-.11.016-.11.006-.11.006-.115-.006-.108-.006-.111-.016-.112-.016-.105-.026-.105-.028-.102-.035-.098-.042-.099-.041-.095-.051-.09-.05-.085-.058-.09-.06-.079-.067-.083-.07-.076-.07-.07-.077-.07-.08-.067-.082-.06-.089-.054-.086-.054-.095-.051-.093-.045-.095-.035-.102-.038-.102-.028-.101-.023-.105-.019-.112-.016-.108-.006-.108-.006-.115.006-.114.006-.108.016-.112.02-.108.022-.108.028-.105.038-.095.035-.105.045-.093.05-.098.055-.092.054-.086.06-.086.067-.083.07-.083.07-.073.076-.073.083-.07.08-.067.089-.06.086-.054.089-.054.095-.048.099-.045.098-.038.102-.035.105-.032.105-.022.112-.022.11-.01.11-.01.114-.002.11.003.11.01.11.009.112.022.105.022.102.032.098.035.102.038.099.045.092.048.095.054.086.054.086.06.083.067.082.07.077.073.07.073.067.083.07.083.06.086.054.086.054.092.048.098.044.093.039.105.038.095.028.105.023.108.019.108.016.112.006.108z"/>
      <path d="M330.741 33.116l-.006.115-.006.108-.016.108-.02.112-.022.105-.028.101-.038.102-.039.102-.044.095-.048.093-.054.095-.054.086-.06.09-.07.082-.067.08-.07.076-.077.07-.082.07-.083.066-.086.06-.086.058-.095.051-.092.05-.099.042-.102.042-.098.035-.102.028-.105.026-.112.016-.11.016-.11.006-.11.006-.115-.006-.108-.006-.111-.016-.112-.016-.105-.026-.105-.028-.102-.035-.098-.042-.099-.041-.095-.051-.09-.05-.085-.058-.09-.06-.079-.067-.083-.07-.076-.07-.07-.077-.07-.08-.067-.082-.06-.089-.054-.086-.054-.095-.051-.093-.045-.095-.035-.102-.038-.102-.028-.101-.023-.105-.019-.112-.016-.108-.006-.108-.006-.115.006-.114.006-.108.016-.112.02-.108.022-.108.028-.105.038-.095.035-.105.045-.093.05-.098.055-.092.054-.086.06-.086.067-.083.07-.083.07-.073.076-.073.083-.07.08-.067.089-.06.086-.054.089-.054.095-.048.099-.045.098-.038.102-.035.105-.032.105-.022.112-.022.11-.01.11-.01.114-.002.11.003.11.01.11.009.112.022.105.022.102.032.098.035.102.038.099.045.092.048.095.054.086.054.086.06.083.067.082.07.077.073.07.073.067.083.07.083.06.086.054.086.054.092.048.098.044.093.039.105.038.095.028.105.023.108.019.108.016.112.006.108z"/>
      <path fill="#FFF" d="M325.174 31.752l-.003.114-.01.108-.012.112-.02.108-.021.105-.032.105-.035.098-.042.102-.041.099-.048.092-.054.092-.054.09-.06.085-.067.083-.07.08-.07.076-.076.073-.083.07-.083.064-.086.06-.086.057-.095.054-.096.048-.092.045-.105.038-.098.035-.102.029-.108.022-.109.022-.11.016-.109.006-.115.004-.114-.004-.108-.006-.108-.016-.112-.022-.105-.022-.102-.03-.101-.034-.102-.038-.096-.045-.092-.048-.095-.054-.086-.057-.09-.06-.082-.064-.08-.07-.076-.073-.07-.076-.07-.08-.067-.083-.06-.086-.057-.089-.051-.092-.051-.092-.041-.099-.042-.102-.035-.098-.028-.105-.026-.105-.016-.108-.016-.112-.006-.108-.006-.114.006-.112.006-.111.016-.111.016-.109.026-.105.028-.101.035-.102.042-.102.04-.095.052-.096.05-.092.058-.09.06-.085.067-.083.07-.08.07-.076.077-.07.08-.066.082-.07.089-.06.086-.058.095-.051.092-.05.096-.042.102-.042.101-.035.102-.028.105-.022.112-.02.108-.015.108-.007.114-.006.115.006.108.007.111.015.109.02.108.022.102.028.098.035.105.042.092.041.096.051.095.05.086.058.086.06.083.07.083.067.076.07.07.077.07.08.067.082.06.086.054.089.054.092.048.096.041.095.042.102.035.102.032.101.022.105.019.109.013.111.01.111z"/>
      <path d="M325.174 31.752l-.003.114-.01.108-.012.112-.02.108-.021.105-.032.105-.035.098-.042.102-.041.099-.048.092-.054.092-.054.09-.06.085-.067.083-.07.08-.07.076-.076.073-.083.07-.083.064-.086.06-.086.057-.095.054-.096.048-.092.045-.105.038-.098.035-.102.029-.108.022-.109.022-.11.016-.109.006-.115.004-.114-.004-.108-.006-.108-.016-.112-.022-.105-.022-.102-.03-.101-.034-.102-.038-.096-.045-.092-.048-.095-.054-.086-.057-.09-.06-.082-.064-.08-.07-.076-.073-.07-.076-.07-.08-.067-.083-.06-.086-.057-.089-.051-.092-.051-.092-.041-.099-.042-.102-.035-.098-.028-.105-.026-.105-.016-.108-.016-.112-.006-.108-.006-.114.006-.112.006-.111.016-.111.016-.109.026-.105.028-.101.035-.102.042-.102.04-.095.052-.096.05-.092.058-.09.06-.085.067-.083.07-.08.07-.076.077-.07.08-.066.082-.07.089-.06.086-.058.095-.051.092-.05.096-.042.102-.042.101-.035.102-.028.105-.022.112-.02.108-.015.108-.007.114-.006.115.006.108.007.111.015.109.02.108.022.102.028.098.035.105.042.092.041.096.051.095.05.086.058.086.06.083.07.083.067.076.07.07.077.07.08.067.082.06.086.054.089.054.092.048.096.041.095.042.102.035.102.032.101.022.105.019.109.013.111.01.111z"/>
    </g>
    <g>
      <path stroke="#FFF" stroke-width="2" d="M252.479 1.05h43.017l.171.006.178.013.169.025.169.029.168.038.162.045.16.054.152.063.153.067.146.076.143.083.14.086.137.099.13.101.122.109.124.111.11.124.11.12.1.131.1.137.085.134.083.143.076.153.067.152.064.153.054.16.045.161.038.169.028.169.026.168.012.178.007.172v43.017l-.007.174-.012.175-.026.175-.028.163-.038.168-.045.162-.054.16-.064.159-.067.152-.076.147-.083.143-.085.14-.1.137-.1.127-.11.124-.11.118-.124.11-.121.112-.13.102-.138.096-.14.089-.143.082-.146.077-.153.066-.152.06-.16.058-.162.048-.168.038-.169.029-.169.022-.178.01-.171.006h-43.017l-.175-.007-.175-.009-.175-.022-.162-.029-.169-.038-.162-.048-.162-.057-.156-.06-.153-.067-.146-.077-.143-.082-.14-.09-.137-.095-.127-.102-.124-.111-.118-.111-.111-.118-.112-.124-.102-.127-.095-.137-.089-.14-.083-.143-.076-.147-.067-.152-.06-.16-.054-.159-.051-.162-.039-.168-.028-.163-.022-.175-.01-.175-.006-.174V4.479l.006-.172.01-.178.022-.168.028-.17.039-.168.05-.162.055-.159.06-.153.067-.152.076-.153.083-.143.089-.134.095-.137.102-.13.112-.121.111-.124.118-.111.124-.109.127-.101.137-.099.14-.086.143-.083.146-.076.153-.067.156-.063.162-.054.162-.045.169-.038.162-.029.175-.025.175-.013z"/>
      <path d="M263.038 19.886l-.522 6.019-.013.076-.016.067-.022.067-.026.066-.035.06-.04.055-.042.054-.048.048-.054.044-.057.038-.06.039-.064.022-.064.025-.07.02-.07.006-.073.003h-.032l-.035-.003-3.235-.283h-.003l-.07-.007-.067-.019-.07-.019-.067-.032-.06-.035-.055-.038-.054-.044-.047-.048-.042-.054-.041-.054-.035-.06-.026-.061-.022-.07-.016-.067-.012-.073-.004-.073v-.061l.528-6.022.013-.073.016-.073.022-.064.029-.063.032-.06.041-.058.042-.054.05-.048.051-.044.058-.039.06-.035.064-.028.063-.023.07-.015.07-.013.073-.003h.032l.035.003 3.232.283.074.013.07.016.07.022.063.025.06.035.058.042.054.041.048.05.041.052.041.057.035.06.026.064.022.064.02.07.006.07.006.073v.035zM266.712 20.433l-.754 8.58-.006.057-.007.054-.013.05-.012.052-.016.05-.02.048-.018.051-.023.048-.022.045-.025.044-.032.045-.029.041-.032.041-.035.038-.038.039-.032.035-.044.031-.035.035-.045.032-.044.026-.045.025-.044.029-.048.022-.048.016-.047.022-.051.013-.048.016-.054.01-.051.009-.054.003-.057.01h-.051l-.06-.007-.061-.003-.054-.006-.054-.007-.058-.015-.05-.016-.055-.016-.05-.023-.051-.022-.048-.022-.051-.026-.045-.031-.044-.035-.045-.032-.038-.035-.038-.038-.038-.039-.035-.04-.032-.042-.035-.045-.029-.044-.028-.051-.022-.048-.023-.05-.025-.055-.013-.05-.019-.052-.013-.054-.006-.057-.01-.057v-.058l-.006-.06v-.048l.006-.054.751-8.576.003-.054.01-.055.013-.054.012-.05.013-.048.02-.051.021-.048.02-.05.028-.045.026-.042.025-.047.029-.039.038-.044.032-.038.035-.035.038-.035.038-.035.041-.032.042-.032.041-.025.045-.029.047-.025.045-.023.048-.019.047-.019.051-.013.054-.015.051-.013.054-.007.054-.01.051-.002h.112l.06.003.054.01.057.009.054.013.058.012.05.023.048.016.054.022.045.029.05.025.045.032.045.028.044.035.039.039.044.038.038.035.032.044.035.042.029.044.032.045.025.05.025.048.023.048.022.054.016.054.016.051.016.054.006.057.006.058.007.054.003.06v.051zM270.323 20.748l-.751 8.583-.007.054-.01.05-.012.055-.01.054-.019.048-.015.054-.023.044-.019.048-.025.044-.026.048-.028.042-.029.044-.035.038-.032.042-.038.031-.038.039-.035.038-.041.028-.042.029-.041.032-.048.025-.044.023-.048.022-.045.022-.05.016-.051.02-.051.012-.054.01-.051.012-.054.003-.055.003-.054.004-.057-.004-.06-.003-.058-.01-.054-.006-.054-.016-.054-.015-.054-.013-.05-.022-.048-.023-.051-.028-.045-.026-.048-.028-.044-.032-.045-.035-.038-.032-.041-.038-.038-.045-.032-.035-.035-.044-.032-.048-.029-.045-.028-.044-.026-.051-.022-.054-.02-.048-.018-.05-.013-.055-.016-.054-.01-.06-.006-.054-.006-.058V29.13l.757-8.58.006-.054.007-.05.01-.051.015-.054.016-.051.016-.048.022-.05.023-.049.022-.044.025-.048.029-.038.032-.045.032-.04.035-.04.031-.034.039-.038.038-.035.041-.029.041-.032.042-.028.044-.029.045-.022.05-.023.045-.025.051-.013.051-.019.048-.013.054-.01.054-.005.054-.01.05-.003.058-.003.057.003.06.003.058.01.051.01.057.012.051.016.054.016.054.019.051.025.048.026.048.025.044.032.045.029.044.035.042.031.038.039.038.04.038.042.029.045.035.044.028.045.03.048.025.047.022.051.019.048.019.054.013.06.016.051.01.058.006.054.006.057v.111zM267.01 15.168l6.096-2.838 5.513 3.853-4.559 2.538-3-.26zM281.622 20.751l.073.013.07.012.064.026.067.029.06.031.054.039.054.047.048.045.045.054.038.057.035.057.032.067.022.064.016.067.01.073.006.073-.007.032v.035l-.528 6.022-.01.07-.015.07-.022.067-.03.063-.03.06-.04.058-.047.05-.048.052-.05.047-.054.039-.06.031-.068.026-.067.022-.07.02-.066.012h-.108l-.032-.003-9.108-.799-.073-.006-.067-.016-.067-.022-.064-.032-.063-.035-.054-.035-.054-.045-.048-.05-.045-.048-.038-.057-.035-.064-.025-.06-.022-.064-.023-.073-.006-.07-.003-.077v-.06l.528-6.025.01-.07.018-.067.023-.07.025-.06.032-.064.038-.057.048-.051.05-.051.052-.045.057-.038.054-.032.067-.032.067-.022.07-.016.07-.012h.136z"/>
    </g>
    <g>
      <path stroke="#FFF" stroke-width="2" d="M171.9 1.056h-43.978l-.156.013-.15.019-.145.028-.15.032-.143.045-.14.048-.137.05-.133.06-.13.07-.128.07-.124.08-.118.083-.114.092-.112.096-.105.095-.095.105-.096.112-.092.114-.083.118-.08.124-.075.127-.064.13-.06.134-.055.137-.044.14-.045.143-.032.15-.028.146-.02.15-.012.155v44.13l.013.156.019.15.028.146.032.15.045.143.044.14.054.136.06.134.065.13.076.128.08.124.082.117.092.115.096.111.095.105.105.096.112.095.114.092.118.083.124.08.127.07.13.07.134.06.137.051.14.048.143.044.15.032.146.029.15.019.155.012h44.13l.156-.012.15-.02.146-.028.15-.032.143-.044.14-.048.136-.05.134-.061.13-.07.128-.07.124-.08.114-.083.118-.092.111-.095.105-.096.096-.105.095-.111.092-.115.083-.117.08-.124.07-.128.07-.13.06-.134.051-.136.048-.14.044-.144.032-.149.029-.146.019-.15.012-.156V3.922l-.012-.156-.02-.15-.028-.145-.032-.15-.044-.143-.048-.14-.05-.137-.061-.133-.07-.13-.07-.128-.08-.124-.083-.118-.092-.114-.095-.112-.096-.105-.105-.095-.111-.096-.118-.092-.114-.083-.124-.08-.128-.07-.13-.07-.134-.06-.136-.05-.14-.048-.144-.045-.149-.032-.146-.028-.15-.02-.156-.012z"/>
      <path fill="#FFF" d="M132.433 39.813h-.038l-.038-.003-.038-.004-.038-.009-.039-.006-.031-.01-.035-.013-.035-.016-.067-.031-.06-.035-.061-.045-.054-.05-.048-.055-.041-.054-.042-.067-.031-.063-.016-.032-.01-.038-.006-.035-.013-.039-.003-.038-.006-.038v-.038l-.007-.038.007-.051v-.051l.649-4.508 7.835.003v5.364z"/>
      <path d="M132.433 39.813h-.038l-.038-.003-.038-.004-.038-.009-.039-.006-.031-.01-.035-.013-.035-.016-.067-.031-.06-.035-.061-.045-.054-.05-.048-.055-.041-.054-.042-.067-.031-.063-.016-.032-.01-.038-.006-.035-.013-.039-.003-.038-.006-.038v-.038l-.007-.038.007-.051v-.051l.649-4.508 7.835.003v5.364z"/>
      <path d="M150.725 18.317h17.395v-1.396h-14.204l4.457-3.022-8.386-4.76-8.338 4.76h-.047l4.456 3.022h-9.26l-.105.003-.102.003-.105.016-.102.016-.098.02-.099.025-.098.028-.096.038-.092.038-.092.039-.086.044-.086.051-.086.051-.083.06-.076.06-.077.061-.076.067-.07.07-.067.073-.063.073-.064.083-.057.08-.054.086-.048.085-.05.093-.039.089-.041.095-.035.093-.032.098-.026.102-.022.105-.016.102-2.023 14.147h35.588v-7.483H150.65l-.038-.006-.035-.006-.073-.02-.067-.022-.064-.035-.06-.035-.054-.044-.054-.045-.051-.054-.042-.054-.038-.06-.028-.067-.023-.067-.019-.073-.01-.032-.003-.038-.003-.038v-.077l.003-.038.004-.038.01-.032.018-.073.023-.07.028-.06.038-.06.042-.058.05-.054.055-.045.054-.044.06-.035.064-.035.067-.023.073-.019.073-.01.076-.006h17.395v-1.396h-17.433l-.038-.003-.038-.003-.035-.007-.073-.022-.067-.022-.064-.032-.06-.035-.054-.048-.054-.044-.051-.051-.042-.058-.038-.06-.028-.064-.023-.07-.019-.07-.01-.035-.003-.038-.003-.038v-.076l.003-.038.004-.035.01-.035.018-.07.023-.07.028-.064.038-.06.042-.058.05-.05.055-.048.054-.045.06-.032.064-.038.067-.022.073-.016.073-.013.076-.003h17.395v-1.4h-17.433l-.038-.003-.038-.003-.035-.006-.035-.01-.038-.01-.032-.012-.035-.01-.064-.035-.06-.032-.054-.047-.054-.045-.051-.054-.042-.057-.038-.057-.028-.067-.023-.07-.019-.07-.01-.032-.003-.038-.003-.038v-.077l.003-.038.004-.038.01-.035.018-.07.023-.067.028-.064.038-.06.042-.06.05-.051.055-.045.054-.044.06-.035.064-.035.067-.023.073-.019.073-.01.076-.006zm-10.106 6.461v.039l-.004.038-.003.035-.01.038-.018.073-.026.073-.032.064-.035.064-.047.057-.048.05-.054.052-.057.044-.064.038-.064.029-.073.029-.07.019-.038.006-.038.006H135.847l-.038-.006-.035-.006-.039-.01-.035-.01-.038-.012-.035-.016-.063-.029-.064-.038-.057-.044-.051-.051-.051-.051-.045-.057-.038-.064-.028-.064-.016-.035-.013-.038-.01-.035-.01-.038-.005-.038-.007-.035v-.131l.007-.05.814-5.708.013-.07.019-.063.025-.064.032-.064.032-.054.044-.054.039-.047.05-.045.054-.044.051-.039.06-.028.061-.026.067-.022.06-.016.07-.006.07-.007H139.9l.038.007h.038l.038.01.07.018.073.026.064.032.064.038.057.044.054.048.048.054.047.057.035.064.032.064.026.073.019.07.01.035.002.038.004.041v5.742zm7.997-7.857l-4.282-2.901 5.656-3.233 5.666 3.22-4.298 2.914h-2.742z" fill="#FFF"/>
      <path d="M150.725 18.317h17.395v-1.396h-14.204l4.457-3.022-8.386-4.76-8.338 4.76h-.047l4.456 3.022h-9.26l-.105.003-.102.003-.105.016-.102.016-.098.02-.099.025-.098.028-.096.038-.092.038-.092.039-.086.044-.086.051-.086.051-.083.06-.076.06-.077.061-.076.067-.07.07-.067.073-.063.073-.064.083-.057.08-.054.086-.048.085-.05.093-.039.089-.041.095-.035.093-.032.098-.026.102-.022.105-.016.102-2.023 14.147h35.588v-7.483H150.65l-.038-.006-.035-.006-.073-.02-.067-.022-.064-.035-.06-.035-.054-.044-.054-.045-.051-.054-.042-.054-.038-.06-.028-.067-.023-.067-.019-.073-.01-.032-.003-.038-.003-.038v-.077l.003-.038.004-.038.01-.032.018-.073.023-.07.028-.06.038-.06.042-.058.05-.054.055-.045.054-.044.06-.035.064-.035.067-.023.073-.019.073-.01.076-.006h17.395v-1.396h-17.433l-.038-.003-.038-.003-.035-.007-.073-.022-.067-.022-.064-.032-.06-.035-.054-.048-.054-.044-.051-.051-.042-.058-.038-.06-.028-.064-.023-.07-.019-.07-.01-.035-.003-.038-.003-.038v-.076l.003-.038.004-.035.01-.035.018-.07.023-.07.028-.064.038-.06.042-.058.05-.05.055-.048.054-.045.06-.032.064-.038.067-.022.073-.016.073-.013.076-.003h17.395v-1.4h-17.433l-.038-.003-.038-.003-.035-.006-.035-.01-.038-.01-.032-.012-.035-.01-.064-.035-.06-.032-.054-.047-.054-.045-.051-.054-.042-.057-.038-.057-.028-.067-.023-.07-.019-.07-.01-.032-.003-.038-.003-.038v-.077l.003-.038.004-.038.01-.035.018-.07.023-.067.028-.064.038-.06.042-.06.05-.051.055-.045.054-.044.06-.035.064-.035.067-.023.073-.019.073-.01z"/>
      <path d="M140.619 24.778v.039l-.004.038-.003.035-.01.038-.018.073-.026.073-.032.064-.035.064-.047.057-.048.05-.054.052-.057.044-.064.038-.064.029-.073.029-.07.019-.038.006-.038.006H135.847l-.038-.006-.035-.006-.039-.01-.035-.01-.038-.012-.035-.016-.063-.029-.064-.038-.057-.044-.051-.051-.051-.051-.045-.057-.038-.064-.028-.064-.016-.035-.013-.038-.01-.035-.01-.038-.005-.038-.007-.035v-.131l.007-.05.814-5.708.013-.07.019-.063.025-.064.032-.064.032-.054.044-.054.039-.047.05-.045.054-.044.051-.039.06-.028.061-.026.067-.022.06-.016.07-.006.07-.007H139.9l.038.007h.038l.038.01.07.018.073.026.064.032.064.038.057.044.054.048.048.054.047.057.035.064.032.064.026.073.019.07.01.035.002.038.004.041v.038zM148.616 16.92l-4.282-2.9 5.656-3.233 5.666 3.22-4.298 2.914z"/>
      <path fill="#FFF" d="M158.465 38.117l-.003-.194-.016-.197-.022-.194-.035-.188-.045-.19-.05-.182-.064-.181-.067-.175-.076-.169-.086-.165-.092-.163-.102-.152-.105-.153-.118-.146-.12-.143-.125-.13-.137-.131-.14-.121-.143-.112-.15-.11-.158-.1-.163-.092-.165-.082-.172-.08-.175-.067-.175-.063-.188-.051-.184-.042-.188-.035-.194-.025-.194-.016-.203-.003-.194.003-.198.016-.19.025-.191.035-.185.042-.184.05-.179.064-.171.067-.175.08-.169.082-.159.093-.156.098-.153.111-.143.112-.14.12-.137.131-.124.13-.12.144-.115.146-.108.153-.102.152-.089.163-.09.165-.075.169-.07.175-.06.181-.049.181-.047.191-.035.188-.023.194-.016.197v.392l.016.197.023.19.035.191.047.188.048.182.06.18.07.176.077.168.089.166.089.162.102.156.108.153.115.146.12.137.124.137.137.127.14.118.143.114.153.108.156.099.159.098.169.08.175.08.171.07.179.06.184.054.185.038.19.035.191.026.198.016.194.003.203-.003.194-.016.194-.026.188-.035.184-.038.188-.054.175-.06.175-.07.172-.08.165-.08.163-.098.159-.099.15-.108.142-.114.14-.118.137-.127.124-.137.121-.137.118-.146.105-.153.102-.156.092-.162.086-.166.076-.168.067-.175.063-.181.051-.182.045-.188.035-.19.022-.191.016-.197z"/>
      <path d="M158.465 38.117l-.003-.194-.016-.197-.022-.194-.035-.188-.045-.19-.05-.182-.064-.181-.067-.175-.076-.169-.086-.165-.092-.163-.102-.152-.105-.153-.118-.146-.12-.143-.125-.13-.137-.131-.14-.121-.143-.112-.15-.11-.158-.1-.163-.092-.165-.082-.172-.08-.175-.067-.175-.063-.188-.051-.184-.042-.188-.035-.194-.025-.194-.016-.203-.003-.194.003-.198.016-.19.025-.191.035-.185.042-.184.05-.179.064-.171.067-.175.08-.169.082-.159.093-.156.098-.153.111-.143.112-.14.12-.137.131-.124.13-.12.144-.115.146-.108.153-.102.152-.089.163-.09.165-.075.169-.07.175-.06.181-.049.181-.047.191-.035.188-.023.194-.016.197v.392l.016.197.023.19.035.191.047.188.048.182.06.18.07.176.077.168.089.166.089.162.102.156.108.153.115.146.12.137.124.137.137.127.14.118.143.114.153.108.156.099.159.098.169.08.175.08.171.07.179.06.184.054.185.038.19.035.191.026.198.016.194.003.203-.003.194-.016.194-.026.188-.035.184-.038.188-.054.175-.06.175-.07.172-.08.165-.08.163-.098.159-.099.15-.108.142-.114.14-.118.137-.127.124-.137.121-.137.118-.146.105-.153.102-.156.092-.162.086-.166.076-.168.067-.175.063-.181.051-.182.045-.188.035-.19.022-.191.016-.197z"/>
      <path fill="#FFF" d="M149.383 38.117l-.003-.194-.016-.197-.026-.194-.035-.188-.041-.19-.05-.182-.061-.181-.07-.175-.08-.169-.083-.165-.095-.163-.099-.152-.108-.153-.114-.146-.121-.143-.127-.13-.134-.131-.14-.121-.146-.112-.15-.11-.156-.1-.162-.092-.165-.082-.172-.08-.178-.067-.179-.063-.18-.051-.185-.042-.191-.035-.194-.025-.198-.016-.197-.003-.197.003-.194.016-.191.025-.194.035-.185.042-.18.05-.182.064-.175.067-.169.08-.168.082-.16.093-.155.098-.153.111-.146.112-.14.12-.13.131-.131.13-.121.144-.111.146-.112.153-.098.152-.096.163-.083.165-.076.169-.07.175-.06.181-.054.181-.039.191-.035.188-.025.194-.016.197-.006.194.006.198.016.197.025.19.035.191.039.188.054.182.06.18.07.176.076.168.083.166.096.162.098.156.112.153.11.146.122.137.13.137.13.127.14.118.147.114.153.108.156.099.159.098.168.08.169.08.175.07.181.06.181.054.185.038.194.035.19.026.195.016.197.003.197-.003.198-.016.194-.026.19-.035.185-.038.181-.054.179-.06.178-.07.172-.08.165-.08.162-.098.156-.099.15-.108.146-.114.14-.118.134-.127.127-.137.12-.137.115-.146.108-.153.099-.156.095-.162.083-.166.08-.168.07-.175.06-.181.051-.182.041-.188.035-.19.026-.191.016-.197z"/>
      <path d="M149.383 38.117l-.003-.194-.016-.197-.026-.194-.035-.188-.041-.19-.05-.182-.061-.181-.07-.175-.08-.169-.083-.165-.095-.163-.099-.152-.108-.153-.114-.146-.121-.143-.127-.13-.134-.131-.14-.121-.146-.112-.15-.11-.156-.1-.162-.092-.165-.082-.172-.08-.178-.067-.179-.063-.18-.051-.185-.042-.191-.035-.194-.025-.198-.016-.197-.003-.197.003-.194.016-.191.025-.194.035-.185.042-.18.05-.182.064-.175.067-.169.08-.168.082-.16.093-.155.098-.153.111-.146.112-.14.12-.13.131-.131.13-.121.144-.111.146-.112.153-.098.152-.096.163-.083.165-.076.169-.07.175-.06.181-.054.181-.039.191-.035.188-.025.194-.016.197-.006.194.006.198.016.197.025.19.035.191.039.188.054.182.06.18.07.176.076.168.083.166.096.162.098.156.112.153.11.146.122.137.13.137.13.127.14.118.147.114.153.108.156.099.159.098.168.08.169.08.175.07.181.06.181.054.185.038.194.035.19.026.195.016.197.003.197-.003.198-.016.194-.026.19-.035.185-.038.181-.054.179-.06.178-.07.172-.08.165-.08.162-.098.156-.099.15-.108.146-.114.14-.118.134-.127.127-.137.12-.137.115-.146.108-.153.099-.156.095-.162.083-.166.08-.168.07-.175.06-.181.051-.182.041-.188.035-.19.026-.191.016-.197z"/>
      <path fill="#FFF" d="M131.854 7.854v.754h36.266v-.754z"/>
      <path d="M131.854 7.854v.754h36.266v-.754z"/>
      <path fill="#FFF" d="M168.12 44.12v-1.435h-36.266v1.435z"/>
      <path d="M168.12 44.12v-1.435h-36.266v1.435z"/>
      <path fill="#FFF" d="M168.12 34.675v-.226h-8.312v5.364h8.312z"/>
      <path d="M168.12 34.675v-.226h-8.312v5.364h8.312z"/>
    </g>
    <g fill="#FFF">
      <path d="M267.66 12.978l13.169-2.25.064-.009.061-.015.058-.013.061-.025.058-.022.058-.022.052-.025.058-.028.051-.038.048-.03.049-.035.051-.038.045-.04.042-.041.042-.041.042-.044.035-.047.039-.047.032-.05.032-.05.032-.054.026-.05.022-.056.023-.053.02-.06.019-.053.012-.06.017-.06.01-.062.006-.06.006-.059v-.135l-.01-.072-.006-.065-.013-.072-.02-.063-.012-.066-.026-.063-.026-.065-.025-.06-.036-.06-.032-.059-.035-.056-.039-.05-.045-.054-.045-.053-.045-.047-.048-.044-.055-.04-.055-.041-.051-.041-.058-.034-.061-.035-.061-.028-.061-.031-.065-.026-.067-.018-.062-.02-.07-.018-.071-.01-.07-.005-.075-.01h-.132l-.06.003-.062.007-.061.009-13.169 2.246-.067.016-.062.015-.057.013-.058.022-.058.022-.058.022-.058.028-.052.031-.051.032-.052.034-.051.031-.045.038-.048.044-.039.04-.045.038-.042.047-.038.044-.033.05-.035.047-.032.053-.03.05-.025.054-.029.053-.016.06-.022.053-.016.056-.017.06-.012.06-.01.059-.01.066-.003.056v.135l.01.072.006.065.013.066.013.07.02.065.022.066.029.06.025.059.03.063.038.059.035.053.039.054.042.05.045.053.048.044.048.05.052.04.051.041.058.041.058.035.058.034.061.028.061.028.065.022.067.022.065.022.067.016.07.012.075.01h.07l.071.006h.062l.064-.006.061-.006zM256 17l36-6.568V9l-36 6.574zM290.5 34.242l-.003.082-.013.073-.019.073-.025.07-.035.066-.034.06-.045.06-.047.05-.054.05-.06.042-.06.038-.066.035-.07.022-.07.016-.037.009-.038.003-.038.003h-8.58l-.038-.003-.038-.003-.034-.01-.035-.006-.038-.01-.031-.012-.035-.01-.07-.034-.06-.038-.053-.041-.057-.05-.05-.051-.039-.06-.037-.06-.032-.067-.016-.038-.013-.031-.009-.038-.006-.035-.01-.035-.003-.038-.003-.038v-7.583l.003-.038.003-.038.01-.038.015-.07.029-.069.032-.066.037-.06.038-.06.05-.054.058-.048.053-.044.06-.035.07-.034.066-.026.073-.019.072-.012.082-.003h8.498l.076.003.076.012.07.02.069.025.066.034.06.035.06.044.054.048.047.053.045.06.034.06.035.067.025.07.02.069.012.076.003.076v7.501zm-11.501 0v.044l-.003.038-.007.038-.006.035-.019.073-.025.07-.032.066-.038.06-.044.06-.047.05-.054.05-.054.042-.066.038-.063.035-.07.022-.072.016-.038.009-.038.003-.038.003h-8.577l-.037-.003-.038-.003-.035-.01-.038-.006-.035-.01-.038-.012-.031-.01-.067-.034-.06-.038-.06-.041-.05-.05-.047-.051-.048-.06-.038-.06-.028-.067-.016-.038-.01-.031-.012-.038-.01-.035-.006-.035-.003-.038-.003-.038v-7.583l.003-.038.003-.038.006-.038.023-.07.025-.069.028-.066.038-.06.048-.06.047-.054.05-.048.06-.044.06-.035.067-.034.07-.026.072-.019.073-.012.075-.003h8.501l.076.003.076.012.073.02.069.025.063.034.066.035.054.044.054.048.047.053.044.06.038.06.032.067.025.07.02.069.005.038.007.038.003.038V34.242zm-11.501 0v.044l-.003.038-.003.038-.01.035-.019.073-.022.07-.032.066-.037.06-.045.06-.047.05-.057.05-.057.042-.06.038-.066.035-.07.022-.069.016-.038.009-.038.003-.038.003h-8.58l-.034-.003-.038-.003-.038-.01-.038-.006-.035-.01-.031-.012-.035-.01-.07-.034-.056-.038-.06-.041-.054-.05-.05-.051-.042-.06-.034-.06-.035-.067-.013-.038-.01-.031-.012-.038-.006-.035-.01-.035-.003-.038-.003-.038v-7.583l.003-.038.003-.038.01-.038.019-.07.022-.069.035-.066.034-.06.041-.06.05-.054.055-.048.06-.044.056-.035.07-.034.066-.026.073-.019.076-.012.079-.003h8.497l.076.003.076.012.07.02.069.025.066.034.06.035.057.044.057.048.047.053.045.06.037.06.032.067.022.07.02.069.009.038.003.038.003.038V34.242zm23.002-9.754h-7.424L277.518 14l-2.097.367 5.359 10.12h-13.49l4.976-9.561-2.605.452-4.737 9.11H257.5l-.079.006h-.076l-.072.013-.076.015-.07.016-.075.016-.07.028-.066.026-.07.031-.06.032-.066.035-.06.04-.06.042-.057.047-.053.044-.051.054-.054.05-.044.051-.044.057-.041.063-.041.06-.035.06-.032.067-.031.066-.029.067-.025.072-.019.073-.016.07-.015.075-.007.073-.006.076V42.578l.006.076.007.076.015.072.016.073.02.07.024.072.029.067.031.07.032.062.035.064.04.06.042.06.044.056.044.051.054.054.05.054.054.044.057.044.06.041.06.044.066.032.06.035.07.031.066.022.07.026.075.022.07.016.076.012.072.01.076.006h33.155l.076-.006.072-.01.076-.012.073-.016.07-.022.072-.026.066-.022.066-.031.067-.035.063-.032.06-.044.06-.041.057-.044.05-.044.054-.054.05-.054.048-.05.044-.057.041-.06.041-.06.035-.064.034-.063.029-.07.025-.066.029-.072.015-.07.016-.073.016-.072.013-.076.003-.076.003-.079v-16.51l-.003-.076-.003-.076-.013-.073-.016-.076-.016-.07-.015-.072-.029-.072-.025-.067-.029-.066-.034-.067-.035-.06-.041-.06-.041-.063-.044-.057-.048-.05-.05-.05-.054-.055-.05-.044-.057-.047-.06-.041-.06-.041-.063-.035-.067-.032-.066-.031-.066-.026-.073-.028-.07-.016-.072-.016-.076-.015-.072-.013h-.076l-.076-.006z"/>
    </g>
    <path d="M376.09 49.6l-.59-.48-.43-.88V3.93l.24-.88.81-.82.81-.25h44l.62.13.86.6.43.88v44.27l-.12.62-.61.86-.88.43h-44.3l-.84-.17zM376 .12l-1.23.57-1 .93-.48.86-.29 1.13v44.25l.05.64.27.94.5.85.66.68 1 .61 1.14.28h44.93l.93-.28.85-.5.8-.81.48-.86.29-1.13V3.56l-.3-1.14-.5-.85-.85-.81-.86-.48-1.13-.28h-44.21L376 .12z" fill="#FFF" fill-rule="nonzero"/>
    <path d="M417.97 34.59a2.23 2.23 0 00-.7-1.7c-1.58-1.56-3.13-3.14-4.71-4.7a2.58 2.58 0 00-1.88-.77H397.5a3 3 0 00-2.24.94c-1.68 1.71-3.38 3.39-5.07 5.08a.73.73 0 01-.41.23c-.93.1-1.86.18-2.8.26l-2.83.25-3.45.24a.81.81 0 00-.75.75v5.11a.66.66 0 00.59.65h1.09a6 6 0 01.38-2.69 5.08 5.08 0 011.65-2.05 4.73 4.73 0 017.36 4.72h15.87a5.18 5.18 0 011.05-3.8 4.68 4.68 0 017-.41 5 5 0 011.39 4.23h.68a.79.79 0 00.92-.64 1.13 1.13 0 000-.26v-5.45m-15-1.64a.72.72 0 01-.64.79h-9.11a.42.42 0 01-.45-.24.47.47 0 01.14-.54l3.71-3.72a1 1 0 01.77-.31h4.67a.87.87 0 01.91.83v3.19m12.2.56c-.1.24-.31.23-.51.23h-9.4a.65.65 0 01-.73-.73v-3.14a.85.85 0 01.81-.89h5.31a1 1 0 01.72.32l3.7 3.61a.53.53 0 01.15.61" fill="#FFF" fill-rule="nonzero"/>
    <path d="M411.77 36.46a3.61 3.61 0 00-3.77 3.45v.17a3.51 3.51 0 003.44 3.58h.17a3.57 3.57 0 003.64-3.4 3.68 3.68 0 00-3.48-3.8m1.84 3.71a1.9 1.9 0 01-1.87 1.91h-.07a1.92 1.92 0 01-2-1.84v-.16a2 2 0 113.91 0M386.39 36.5a3.61 3.61 0 100 7.22 3.55 3.55 0 003.62-3.48v-.11a3.5 3.5 0 00-3.37-3.63h-.22m0 5.58a1.9 1.9 0 01-2-1.8v-.12a2 2 0 013.92-.8c.05.264.05.536 0 .8a1.94 1.94 0 01-1.88 2h-.12" fill="#FFF" fill-rule="nonzero"/>
  </g>
</svg>
